<?xml version="1.0" encoding="UTF-8"?>
<svg id="_레이어_2" data-name="레이어 2" xmlns="http://www.w3.org/2000/svg" viewBox="0 0 246.96 274.06">
  <g id="_레이어_1-2" data-name="레이어 1">
    <g>
      <path d="M215.57,10.98c-.22,4-.19,8.96,4.09,11.05,1.04.53,2.18.81,3.39.81,2.43,0,4.59-1.11,6.51-2.16-1.24,3.01-2.37,6.1-.44,9,.86,1.29,2.58,2.82,5.89,2.82.56,0,1.18-.04,1.88-.13-.79,1.43-1.57,3.03-1.85,4.92-.34,2.27.29,4.31.79,5.95.16.53.39,1.26.48,1.75-1.57.98-2.77,1.43-3.69,1.77-1.41.52-3.77,1.4-4.59,4.17-.4,1.34-.29,2.5.15,3.63-2.25.81-3.61,2.16-4.43,3.35-3.46,5.07-.71,12.08,1.96,18.87.38.96.74,1.88,1.07,2.78.21,1.63,0,2.94-.58,3.63-.6.71-1.64.81-2.21.81-1.74,0-4.34-.98-5.95-3.73-2.46-4.19-1.54-10.56,2.59-17.91.65-1.16.81-2.53.45-3.8-1.02-3.6-3.66-4.89-5.8-4.89-8.63,0-10.45,19.15-10.45,22.92,0,4.84.96,8.86,2.84,11.93,2.55,4.16,6.79,6.45,11.94,6.45.23,0,.47,0,.7-.01.19,0,.38-.03.56-.05,2.88.62,10.71,6.37,14.26,10.16l-.02.03c-.92,1.61-.88,3.6.12,5.17,4.4,6.92,5.43,16.16,2.82,25.34-3.22,11.36-11.38,20.72-22.99,26.35-.56.27-1.06.65-1.49,1.1-2.95,3.19-5.71,6.64-8.63,10.29-7.77,9.71-15.81,19.75-27.01,23.78-1.5.54-2.65,1.77-3.1,3.3-2.14,7.3-3.13,13.8-2.86,20.05-.87-.43-1.83-.67-2.93-.67-1.3,0-2.43.37-3.4.94-.81-.76-1.57-1.28-2.34-1.68-.05-.12-.11-.27-.18-.44-.38-.96-1.05-1.78-1.91-2.35,0-.11,0-.23-.01-.33-.13-3.58-1.67-5.47-3.52-6.45-.14-1.67-.65-3.36-1.84-4.83-1.11-1.38-3.24-3.03-7.04-3.03-1.1,0-2.28.13-3.63.4-1.21.24-2.3.93-3.03,1.93-3.48,4.7-3.92,9.94-4.3,14.57-.05.63-.1,1.25-.16,1.86-1.6.31-3.05,1.13-4.18,2.38-.05.06-.1.12-.15.17-.28-.57-.58-1.11-.89-1.62-.77-1.27-2.06-2.13-3.52-2.35-.25-.04-.5-.06-.75-.06-.29,0-.59.03-.88.08-.37-.79-.94-1.46-1.64-1.95.38-.65.61-1.39.67-2.16.11-1.56-.52-3.09-1.7-4.12-.61-.53-1.15-.99-1.61-1.38.38-.8.86-1.78,1.41-3.03.94-2.11.3-4.59-1.53-6-4.18-3.2-8.98-4.82-14.27-4.82-9.71,0-18.78,5.39-25.43,9.35.88-2.46,2.21-5.87,4.21-10.57.22-.52.35-1.06.39-1.62.16-2.45-.37-4.76-.84-6.8-.63-2.71-.98-4.46-.34-5.98.9-2.16.19-4.65-1.72-6-.87-.62-1.89-.92-2.9-.92-1.2,0-2.4.43-3.34,1.28-.84.75-1.54,1.32-2.11,1.74.09-1.56.42-3.83,1.25-6.91.68-2.54-.72-5.18-3.21-6.03-.53-.18-1.08-.27-1.62-.27-1.96,0-3.81,1.16-4.61,3.07-.43,1.03-.83,1.96-1.21,2.81.04-1.73.14-3.78.3-6.18.17-2.54-1.58-4.8-4.09-5.26-.3-.06-.61-.08-.9-.08-2.17,0-4.14,1.41-4.78,3.55-2,6.62-3.68,11.41-5.05,14.86.71-8.81,3.28-21.5,8.54-30.28,1.09-1.82.91-4.13-.44-5.76-.97-1.17-2.39-1.81-3.85-1.81-.58,0-1.17.1-1.74.31-3.17,1.18-5.75,3.8-8.05,7.48,5.06-16.18,17.52-27.91,27.7-35.17,1.91-1.36,2.61-3.87,1.7-6.03-.8-1.87-2.62-3.04-4.6-3.04-.3,0-.61.03-.92.09-18.22,3.4-32.71,19.89-35.41,37.88.49-8.7.3-13.29-2.59-15.91-.07-.07-.15-.13-.23-.19.69-.72,1.17-1.64,1.34-2.67,2.81-17.19,19.84-32.27,36.44-32.27,4.36,0,8.57,1.01,12.52,2.99.72.36,1.48.53,2.24.53,1.54,0,3.05-.71,4.02-2.02,1.45-1.95,1.28-4.66-.39-6.42-5.56-5.85-12.84-8.94-21.05-8.94-14.4,0-29.63,9.51-38.15,21.99-.35-1.19-1.14-2.25-2.29-2.92-.79-.46-1.65-.68-2.51-.68-1.47,0-2.91.64-3.89,1.85-4.78,5.9-8.75,17.9-12.69,32.7,1.53-11.14,5.85-24.63,12.89-40.22,1.04-2.3.2-5.02-1.96-6.33-.81-.49-1.71-.73-2.6-.73-.62,0-1.24.12-1.82.34,3.53-6.71,8.18-12.28,13.91-16.63,6.71-5.1,14.8-8.38,23.75-9.67-8.87,2.42-16.92,7.16-23.15,13.78-.47.5-.84,1.1-1.07,1.75-.96,2.7-.05,4.6.57,5.49,1.03,1.46,2.7,2.3,4.57,2.3,2,0,4.02-.93,7.69-2.61,6.41-2.94,17.14-7.86,28.91-7.86,10.05,0,18.74,3.49,26.56,10.68.96.88,2.17,1.32,3.38,1.32s2.36-.42,3.3-1.25c1.92-1.69,2.25-4.56.77-6.64-2.48-3.5-5.41-6.56-8.71-9.14,4.7,2.39,9.19,5.25,13.35,8.54,14.69,11.63,24.1,27.76,26.49,45.4.18,1.35.91,2.56,2,3.36.86.63,1.9.97,2.95.97.29,0,.57-.02.86-.07,22.96-4,29.17-22.06,34.64-38,4.36-12.68,8.47-24.66,19.86-31.26.86-.5,1.55-1.24,1.99-2.14.26-.53,1.85-1.33,3.38-2.11.5-.26,1.03-.52,1.58-.81,1.83-.96,2.88-2.95,2.64-5s-1.71-3.75-3.71-4.27c-4.99-1.29-7.42-9.61-6.88-16.91.16-2.23.64-4.55,1.42-6.57.38,1.11.91,2.09,1.59,2.92,1.54,1.9,3.74,2.95,6.18,2.95,3.95,0,8.14-2.82,11.86-7.87M25.72,123.28c.1.09.2.18.31.27-.13.13-.24.27-.36.41.02-.22.03-.45.05-.68M35.13,146.35c.05,1.87.24,3.73.58,5.58.43,2.38,2.5,4.11,4.92,4.11h.02c.5,0,.99-.08,1.46-.22-.47,1.16-.94,2.37-1.41,3.6-.15-1.88-1.34-3.53-3.09-4.24-.61-.25-1.25-.37-1.89-.37-.26,0-.52.02-.77.06-.09-2.42.04-5.72.2-8.53M200.83,2.5c-14.81,1.58-15.3,35.01-.68,38.8-3.39,1.78-5.96,2.74-7.13,5.16-28.86,16.7-16.35,62.29-52.86,68.66-5.52-40.78-43.82-66.72-78.73-66.72-25.96,0-50.05,14.34-57.42,47.57.22.13.46.19.72.19,2.61,0,6.95-6.07,7.11-6.07,0,0,0,0,0,.02,1.15-3.49,1.54-4.37,1.79-4.37s.37.92.99.92c.41,0,1.03-.39,2.05-1.68-5.58,12.35-13.03,31.04-13.88,47.81-.62,21.1-.26,28.95.9,28.95,2.97,0,11.14-51.61,21.22-64.04-4.6,11.82-6.75,53.64-2.64,53.64.52,0,1.15-.68,1.88-2.18,0,0,5.46-22.15,5.46-22.15,3.71,3.37-3.24,34.43,3.01,34.43.8,0,1.81-.5,3.08-1.63.79,11.29,1.79,15.46,3.09,15.46,3.44,0,8.98-29.18,18.09-32.55-9.66,16.11-11.87,46-6.88,46,2.44,0,6.61-7.15,12.47-26.56-.8,11.61-.26,19.05,2.11,19.05,1.74,0,4.48-4.03,8.41-13.41-2,7.47-2.32,14.48,1.58,14.48,1.66,0,4.08-1.26,7.45-4.29-2.11,5.04,1.1,9.96.81,14.37-6.68,15.74-7.56,20.59-4.9,20.59,4.25,0,17.58-12.42,30.73-12.42,3.84,0,7.66,1.06,11.23,3.79-3.27,7.37-3.86,5.52,1.48,10.19-4.23,2.75-2.77,6.06,1.44,6.6.66,2.7.67,4.92,1.96,4.92.69,0,1.74-.62,3.44-2.13,4.38,7.21,5.73,23.02-1.05,29.09,1.78-.93,3.18-1.32,4.22-1.32,5.4,0,1.3,10.48-7.78,10.48-.75,0-1.53-.07-2.34-.22-6.89,2.28-3.65,4.49,1.68,4.49,4.17,0,9.6-1.35,12.47-5.08,1.74,3.06,8.38,10.22,11.98,10.22.68,0,1.25-.25,1.65-.84,2.12-3.05-4.04-4.52-3.88-6.58,1.67.18,9.38,1.68,14.65,1.68,3.33,0,5.68-.6,4.92-2.5-2.51-6.31-26.07,3.3-27.9-14.77-.15-5.01-3.74-23.3,2.32-23.3.73,0,1.59.26,2.62.84,1.8-6.03.22-13.5,4.41-19.16,1-.2,1.88-.3,2.64-.3,3.56,0,4.55,2.23,3.54,6.9.32-.02.6-.03.87-.03,5.5,0,.69,4.08,5.25,6.95,2.01,5.1,1.62-.05,7.02,8.09,1.38-2.66,2.51-3.74,3.55-3.74,2.89,0,5.04,8.46,9.72,14.8,5.13,8.52-.29,8.42-6.74,13.18,2.92-1.09,5.39-1.55,7.41-1.55,10.18,0,8.68,11.68-5.56,11.68h-.06c-2,2.68.13,3.7,3.32,3.7,4.39,0,10.79-1.92,11.27-4.08.22-.29.52-.42.9-.42,3.09,0,11.2,8.56,20.16,8.56.67,0,1.34-.05,2.02-.15-.24-4.22,2.4-4.79,5.06-4.79.96,0,1.93.07,2.76.07,1.77,0,2.92-.33,2.14-2.44-.78-2.1-3.07-2.51-6.15-2.51-1.97,0-4.27.17-6.71.17-6.57,0-14.18-1.22-19.24-10.19-11.99-17.18-15.34-29.74-9.7-49.02,16.91-6.09,26.69-23.56,37.62-35.38,26.64-12.94,32.98-41.88,22.2-58.87.08,0,.16,0,.24,0,8.4,0-12.72-17.71-18.9-17.71-.25,0-.47.03-.67.09-.17,0-.35.01-.51.01-16.47,0-7.96-31.3-4.33-31.3.4,0,.74.39.99,1.24-10.63,18.95-.44,29.09,7.72,29.09,4.78,0,8.86-3.48,7.65-10.71-3.25-8.81-8.87-19.48,1.21-19.48,1.27,0,2.79.17,4.6.53-7.45-10.49-5.56-5.04,2.83-11.01,2.73-3.37-.77-7.27-.31-10.29.59-3.89,5.72-7.57,2.69-12.13-3.78,1.09-6.2,1.6-7.66,1.6-4.28,0-.37-4.36,1.49-11.33-1.06-1.54-2.27-2.1-3.56-2.1-3.34,0-7.16,3.77-9.9,3.77-.41,0-.79-.08-1.15-.28-3.64-1.69,1.52-14.8-3.53-14.8-1.06,0-2.56.57-4.68,1.94-3.44,5.99-7.27,9.14-9.97,9.14-2.91,0-4.51-3.66-2.88-11.36h0ZM33.45,72.34c-.55,0-.71-.33-.43-1.11,8.67-9.23,21.05-14.05,33.28-14.05,12.94,0,25.7,5.4,33.7,16.69-9.84-9.05-20.29-12-29.94-12-18.17,0-33.51,10.48-36.6,10.48h0ZM29.16,119.65c-1.15-1.98-1.62-3.34-1.13-5.8,1.82-17.13,21.89-34.53,39.85-34.53,6.38,0,12.49,2.2,17.43,7.38-4.84-2.43-9.84-3.52-14.76-3.52-19.69,0-38.26,17.43-41.38,36.47h0ZM40.63,151.05c-3.57-19.8,11.98-41.17,31.27-44.77-14.85,10.6-27.97,25.82-31.27,44.77h0Z"/>
      <path d="M13.97,87.36c-.07.13-.14.26-.17.41-.07.29-.02.51.07.68.05-.39.08-.76.11-1.09h0Z"/>
    </g>
  </g>
</svg>