<?xml version="1.0" encoding="UTF-8"?>
<svg id="_레이어_2" data-name="레이어 2" xmlns="http://www.w3.org/2000/svg" viewBox="0 0 365.27 220.66">
  <g id="_레이어_1-2" data-name="레이어 1">
    <g>
      <path d="M226.75,10.54c9.23,0,18.81.82,27.79,1.71,14.61,1.44,30.25,3.42,45.71,8.15.41.12.9.35,1.43.59,1.06.48,2.32,1.06,3.84,1.29.59,1.01,2.26,3.77,5.9,3.82l24.64.32c-5.5.47-11.71,1.04-18.65,3.36-2.56.86-3.98,3.59-3.21,6.17l.06.19c2.01,6.75,3.91,13.12,2.41,18.87l-3.58,13.72c-1.8,6.9-1.44,13.99-1.12,20.25.23,4.54.45,8.82-.29,11.63-.49,1.84-1.18,2.86-3.65,3.36-.83.17-1.57.25-2.26.25-2.05,0-3.69-.69-6.51-2.73-1.16-.84-2.35-1.47-3.41-2.03-2.48-1.31-3.15-1.8-3.48-3.01-1.48-5.34-4.85-9.41-7.96-12.69-8-8.44-17.2-22.22-16.81-33.26.14-4.11,1.64-7.42,4.59-10.12,1.79-1.64,2.14-4.34.83-6.38-.94-1.47-2.55-2.3-4.21-2.3-.65,0-1.31.13-1.94.39-9.52,4.01-13.61,14.54-10.67,27.48,2.47,10.87,8.46,19.77,15.04,28.07-4.98.94-9.71,2.15-14.12,4.81-4.23,2.55-8.12,6.61-11.9,12.4-1.81,2.78-3.97,4.88-6.25,7.1-1.11,1.08-2.26,2.2-3.38,3.41-5.33,5.77-12.01,10.29-21.41,14.44-.96-.73-2.24-1.73-2.77-2.42l4.51-16.39c.66-2.4-.54-4.92-2.82-5.91-.65-.28-1.33-.42-2-.42-1.69,0-3.32.86-4.25,2.37-.29.46-.59.95-.91,1.46-4.18,6.63-11.95,18.98-3.05,27.29,5.18,4.83,20.94,19.53,22.03,31.53,0,.09,0,.18.01.27.2,2.68-.32,4.6-2.05,7.63-4.9,8.59-11.5,17.05-20.76,26.62-2.2,2.27-8.13,6.31-11.89,8.15-.02-3.56.56-9.04,1.24-11.99.26-.05.53-.1.75-.13,1.93-.34,4.58-.79,6.48-2.94,1.73-1.96,1.64-4.23,1.37-5.73.22-.19.45-.39.67-.57,4.24-3.63,12.12-10.4,13.58-19.9.28-1.82-.46-3.64-1.93-4.75l-36.43-27.49c-3.01-2.27-3.02-4.91-2.29-11.32.31-2.74.64-5.58.44-8.59-.15-2.28-1.83-4.17-4.07-4.59-.31-.06-.62-.09-.92-.09-1.92,0-3.7,1.11-4.53,2.89-3.22,6.94-4.36,14.79-3.11,21.54.48,2.57,1.69,4.55,3.07,6.17-4.56.44-9.12.67-13.63.67-19.89,0-39.42-4.4-56.76-12.76l4.21-15.8.19-.72c2.01-7.51,4.08-15.29,2.91-23.97-.32-2.38-2.29-4.2-4.69-4.33-.09,0-.18,0-.27,0-2.29,0-4.31,1.57-4.86,3.82l-7.64,31.42-2.95,11.47-.31,1.21c-.7,2.77-1.13,4.44-2.09,6.23-.43.81-.62,1.68-.59,2.53-.08.35-.17.77-.26,1.16-2.22,9.83-3.19,16.77-1.21,20.95,8.05,16.96,15.08,29.72,22.78,41.36.64.97,1.65,2.12,3.37,4.06.99,1.11,2.95,3.33,4.48,5.29-.97.05-2.12.07-3.47.07-3.86,0-7.54-.24-9.97-.51.02-.52.06-1.07.11-1.68.09-1.18.2-2.51.13-3.98-.1-1.96-1.33-3.68-3.15-4.4-1.54-.61-2.98-.68-3.93-.68-.51,0-.98.02-1.39.04-.01,0-.03,0-.04,0-.3-.96-.64-2.41-.93-3.64-1.65-6.99-4.41-18.7-15.66-30.34-3.13-3.23-3.94-6.48-5.16-11.4-.16-.63-.32-1.27-.49-1.93-2.59-10.09-7.64-19.57-11.41-25.75-2.02-3.3-4.24-6.32-6.39-9.23-2.9-3.94-5.64-7.66-7.71-11.8-4.65-9.28-7.07-16.21-8.09-23.18l-.09-.59c-.6-4.1-1.04-7.06-1.07-10.29-.02-2.16-.33-4.2-.61-6-.33-2.19-.62-4.08-.36-5.65.25-1.45-.16-2.94-1.11-4.06-.67-.79-1.55-1.34-2.53-1.6.1-.21.2-.42.3-.63,5.04-10.33,13.21-18.11,24.28-23.1,9.73-4.39,19.96-7.23,30.39-8.41.18-.02.37-.03.56-.03.74,0,1.53.16,2.43.33.79.16,1.69.33,2.65.42,3.42.3,6.29.59,9.41,1.29,8.57,1.92,17.44,2.89,26.37,2.89,9.47,0,19.26-1.09,29.11-3.25,5.71-1.25,10.98-2.9,16.08-4.49,5.71-1.78,11.1-3.47,16.16-4.26.4-.06.79-.17,1.16-.33,13.84-5.79,27.38-8.38,43.92-8.38M322.79,12.24c-.14.06-.27.11-.4.17-2.4,1.02-3.96,1.68-7.8,1.82,2.63-.9,5.37-1.51,8.2-1.99M9.27,113.8c0,.2,0,.39-.01.58-.02.73-.04,1.48-.08,2.27-.14,2.3-1.78,4.8-4.08,6.66.3-3.21,1.38-6.37,3.18-9.21.12-.04.25-.07.35-.1.19-.06.41-.12.65-.19M353.62,0c-.32,0-.64.06-.9.22-14.4,8.48-33.5,3.35-48.46,13.6,1.34,1.73,3,2.1,3.35,3.5-.24.05-.47.07-.71.07-1.71,0-3.26-1.18-5.17-1.77-15.24-4.66-30.66-6.76-46.68-8.34-9.81-.97-19.12-1.73-28.29-1.73-15.15,0-29.89,2.08-45.85,8.76-10.01,1.55-20.54,6.18-32.54,8.8-9.26,2.03-18.63,3.13-28.04,3.13-8.4,0-16.83-.88-25.28-2.77-3.34-.75-6.32-1.06-10.07-1.39-1.73-.15-3.45-.77-5.52-.77-.36,0-.74.02-1.13.06-11.17,1.27-21.8,4.28-31.88,8.83-11.9,5.37-21.05,13.86-26.72,25.47-3.69,7.56-5.42,15.16-5.38,24.84.04,8.83-1.24,18.13-4.19,26.75-.77,2.18-4.37,1.61-5.54,3.31-3.94,5.7-5.7,13.02-3.92,20.3,6.47-1.35,13.05-7.27,13.46-13.91.23-3.69-.16-6.05,1.35-9.58,3.43-7.95,3.38-16.72,3.72-25.8.23-5.91,1.06-11.73,2.43-18.26h.96c-.68,4.02.85,8.13.89,12.53.04,3.73.54,7.01,1.21,11.56,1.27,8.62,4.51,16.59,8.57,24.7,3.89,7.76,9.73,13.92,14.31,21.4,4.46,7.3,8.67,15.93,10.84,24.38,1.59,6.19,2.36,10.87,6.89,15.56,15.38,15.92,13.35,31.67,16.94,34.83.66.58,1.52.71,2.46.71.72,0,1.48-.07,2.23-.07s1.43.07,2.09.33c.16,3.26-.84,6.12.3,9.65,1.9.73,8.51,1.27,14.42,1.27,5.04,0,9.57-.4,10.27-1.41,1.99-2.89-8.69-13.06-10.48-15.78-8.57-12.97-15.62-26.39-22.43-40.75-2.2-4.63,2.43-20.28,2.06-20.28-.02,0-.05.05-.11.14,1.41-2.64,1.92-5.01,2.83-8.56l2.96-11.5,7.65-31.45c1.07,7.95-.97,15.2-2.98,22.74l-5.26,19.73c19.38,10.14,40.83,15.12,62.64,15.12,7.95,0,15.94-.66,23.91-1.98-2.74-4.37-7.59-6.25-8.43-10.78-1.16-6.24.16-13.01,2.72-18.52.56,8.62-4.11,17.59,3.83,23.57l36.43,27.49c-1.56,10.12-12.98,17.11-14.43,19.25-.74,1.1.9,3.39,0,4.39-1.68,1.9-6.9.74-7.88,3.56-1.4,4.05-3.07,19.19-.5,20.54.29.15.66.23,1.08.23,4.41,0,15.26-7.73,18.05-10.62,8.26-8.54,15.68-17.41,21.51-27.62,1.94-3.39,3-6.33,2.7-10.47,0-.08,0-.18-.01-.31-1.11-12.57-14.28-26.08-23.6-34.78-6.37-5.94.95-16.24,4.8-22.46l-4.69,17.03c-.99,3.59,4.4,6.66,7.05,8.84,9.87-4.08,18.58-8.97,25.8-16.79,3.29-3.56,7.07-6.46,10.15-11.18,2.49-3.81,5.91-8.21,10.29-10.85,5.88-3.55,12.82-4.15,20.79-5.66-8.43-10.19-16.55-19.97-19.42-32.61-1.84-8.1-1.07-18.06,7.73-21.76-14.86,13.63.06,37.93,11.97,50.51,3,3.17,5.65,6.52,6.77,10.59,1.33,4.8,5.66,5.49,8.78,7.75,3.12,2.26,5.84,3.69,9.45,3.69,1,0,2.07-.11,3.24-.34,14.22-2.85,4.63-22.44,8.92-38.87l3.58-13.72c1.87-7.17-.33-14.44-2.51-21.76,16.7-5.59,28.38-.09,44.9-11.68.86-.6,1.35-1.69,1.37-2.28.03-.92-.97-1.53-2.08-1.53-.3,0-.6.04-.9.14-5.84,1.84-11.6,2.35-17.7,2.35-.51,0-1.02,0-1.54-.01l-31.56-.41c-1.11-.01-1.44-1.08-2-1.93,1.28.06,2.43.09,3.47.09,10.54,0,9.87-2.98,20.49-5.11,7.17-1.44,24.59-8.8,21.89-13.47-.21-.36-.97-.68-1.71-.68h0Z"/>
      <path d="M33.11,126.15l4.17,6.35.56.85c2.69,4.1,5.27,8.03,7.24,12.14l-9.93,7.84c-1,.79-1.66,1.93-1.85,3.18-.53,3.52-.87,7.04.75,11.28,1.01,2.64,2,5.38,2.95,8.02,3.15,8.72,6.41,17.73,11.3,26.03,1.48,2.51,3.32,4.49,5.1,6.4.95,1.02,1.82,1.95,2.57,2.88-1.43.12-2.89.17-4.38.17-2.91,0-5.99-.22-9.18-.66.04-.68.15-1.47.29-2.44.1-.69.2-1.41.29-2.18.27-2.46-1.31-4.75-3.7-5.38-1.55-.41-3-.5-4.17-.57-.14,0-.28-.02-.41-.03-2.03-19.93-3.23-22.85-8.62-35.99-1-2.43-2.13-5.18-3.44-8.48-.21-.52-.44-1.06-.67-1.6-.6-1.4-1.52-3.52-1.25-4.3.31-.92,1.44-2.02,2.53-3.09.83-.81,1.68-1.65,2.43-2.62.2-.26.38-.55.53-.85,2.56-5.2,5.07-10.77,6.89-16.95M30.6,113.19c-1.05,10.5-4.6,19.05-8.86,27.7-1.62,2.09-4.7,4.09-5.74,7.17-1.05,3.12.86,6.46,2.02,9.35,8.77,22.01,9.5,20.22,12.07,46.52,2.45,1.51,5.17.81,7.94,1.54-.37,3.39-1.24,6.26.09,9.54,4.35.79,8.9,1.28,13.49,1.28,3.92,0,7.86-.36,11.73-1.22-1.28-7.02-7.5-10.31-10.72-15.77-6.11-10.37-9.59-22.05-13.89-33.3-1.23-3.21-.9-5.92-.48-8.75l12.94-10.21c-2.36-6.18-6.03-11.63-9.73-17.28l-10.86-16.56h0Z"/>
      <path d="M233.54,179.94c2.56,9.12,5.52,18.31,11.54,25.89l7.72,9.71c-1.06.08-2.17.12-3.31.12-3.06,0-6.12-.3-8.85-.66.02-.35.05-.73.08-1.16.09-1.14.2-2.43.12-3.9-.12-2.11-1.56-3.92-3.59-4.52-1.31-.38-2.41-.52-3.32-.61-.86-2.38-1.9-4.66-2.92-6.89-1.37-2.99-2.67-5.83-3.37-8.59.61-1,1.32-2.09,2.06-3.22,1.29-1.99,2.63-4.06,3.85-6.17M227.5,131.43l-11.42,5.71c6.84,8.67,14.93,18.38,16.76,28.91.82,6.76-7.12,16.34-10.49,22.41,1.13,7.03,5.78,13.61,7.69,20.62,2.09.86,3.61.5,5.8,1.14.18,3.24-.88,5.93.45,9.19,4.29.69,8.74,1.25,13.19,1.25,3.38,0,6.75-.32,10.06-1.14,1.67-.42-.21-3.79-.93-4.7l-9.62-12.1c-8.03-10.1-10.17-23.83-14.23-36.7-3.53-11.2-5.06-22.88-7.27-34.59h0Z"/>
      <path d="M33.11,126.15l4.17,6.35.56.85c2.69,4.1,5.27,8.03,7.24,12.14l-9.93,7.84c-1,.79-1.66,1.93-1.85,3.18-.53,3.52-.87,7.04.75,11.28,1.01,2.64,2,5.38,2.95,8.02,3.15,8.72,6.41,17.73,11.3,26.03,1.48,2.51,3.32,4.49,5.1,6.4.95,1.02,1.82,1.95,2.57,2.88-1.43.12-2.89.17-4.38.17-2.91,0-5.99-.22-9.18-.66.04-.68.15-1.47.29-2.44.1-.69.2-1.41.29-2.18.27-2.46-1.31-4.75-3.7-5.38-1.55-.41-3-.5-4.17-.57-.14,0-.28-.02-.41-.03-2.03-19.93-3.23-22.85-8.62-35.99-1-2.43-2.13-5.18-3.44-8.48-.21-.52-.44-1.06-.67-1.6-.6-1.4-1.52-3.52-1.25-4.3.31-.92,1.44-2.02,2.53-3.09.83-.81,1.68-1.65,2.43-2.62.2-.26.38-.55.53-.85,2.56-5.2,5.07-10.77,6.89-16.95M30.6,113.19c-1.05,10.5-4.6,19.05-8.86,27.7-1.62,2.09-4.7,4.09-5.74,7.17-1.05,3.12.86,6.46,2.02,9.35,8.77,22.01,9.5,20.22,12.07,46.52,2.45,1.51,5.17.81,7.94,1.54-.37,3.39-1.24,6.26.09,9.54,4.35.79,8.9,1.28,13.49,1.28,3.92,0,7.86-.36,11.73-1.22-1.28-7.02-7.5-10.31-10.72-15.77-6.11-10.37-9.59-22.05-13.89-33.3-1.23-3.21-.9-5.92-.48-8.75l12.94-10.21c-2.36-6.18-6.03-11.63-9.73-17.28l-10.86-16.56h0Z"/>
      <path d="M233.54,179.94c2.56,9.12,5.52,18.31,11.54,25.89l7.72,9.71c-1.06.08-2.17.12-3.31.12-3.06,0-6.12-.3-8.85-.66.02-.35.05-.73.08-1.16.09-1.14.2-2.43.12-3.9-.12-2.11-1.56-3.92-3.59-4.52-1.31-.38-2.41-.52-3.32-.61-.86-2.38-1.9-4.66-2.92-6.89-1.37-2.99-2.67-5.83-3.37-8.59.61-1,1.32-2.09,2.06-3.22,1.29-1.99,2.63-4.06,3.85-6.17M227.5,131.43l-11.42,5.71c6.84,8.67,14.93,18.38,16.76,28.91.82,6.76-7.12,16.34-10.49,22.41,1.13,7.03,5.78,13.61,7.69,20.62,2.09.86,3.61.5,5.8,1.14.18,3.24-.88,5.93.45,9.19,4.29.69,8.74,1.25,13.19,1.25,3.38,0,6.75-.32,10.06-1.14,1.67-.42-.21-3.79-.93-4.7l-9.62-12.1c-8.03-10.1-10.17-23.83-14.23-36.7-3.53-11.2-5.06-22.88-7.27-34.59h0Z"/>
    </g>
  </g>
</svg>