<?xml version="1.0" encoding="UTF-8"?>
<svg id="_레이어_2" data-name="레이어 2" xmlns="http://www.w3.org/2000/svg" viewBox="0 0 228.35 227.58">
  <g id="_레이어_1-2" data-name="레이어 1">
    <g>
      <path d="M182.69,6.08c.33,1.86.64,5.43.62,12.53,0,1.52,0,2.72.04,3.61.11,2.16,1.6,4.01,3.7,4.57,1.11.3,2.24.55,3.34.8,3.35.75,6.8,1.52,8.22,3.36,3.71,4.79,8.23,7.21,13.45,7.21,3.19,0,6.08-.91,8.41-1.63.98-.31,2.05-.64,2.84-.79.47,2.77-1.07,9.55-4.96,12.08l-14.43,9.4c-1.32.86-2.16,2.29-2.26,3.86-.37,5.62-2.21,10.86-4.16,16.4-1.05,2.99-2.14,6.07-2.97,9.22-2.9,10.97-7.49,21.14-14.04,31.08-.48.73-.96,1.46-1.43,2.19-5.09,7.8-9.9,15.17-17.42,18.45-1.37.6-2.36,1.37-3.16,1.99-.42.32-.89.69-1.07.73-1.76.42-3.15,1.75-3.65,3.49-4.02,14.08-6.72,28.28-8.26,43.42-.02.2-1.32,20.55,5.58,28.77,2.32,2.76,4.95,3.5,6.75,3.63.12,0,.24.01.36.01.59,0,1.17-.1,1.72-.3-.41,1.06-2.97,2.14-7.09,2.14-3.78,0-7.31-.89-9.01-1.81-.55-.97-2.42-5.3-4.44-21.4-1.21-9.65-2-19.86-2.25-23.91-.07-1.17-.14-2.32-.22-3.46-.53-8.4-1.03-16.33-.61-25.01.13-2.75-1.98-5.09-4.73-5.24-7.47-.4-13.98-1.93-20.87-3.54-.95-.22-1.9-.45-2.86-.67-16.93-3.9-32.44-9.64-46.68-15.25-.6-.24-1.22-.35-1.83-.35-1.86,0-3.63,1.04-4.49,2.8-4.41,8.99-8.96,17.56-16.09,23.49-1.13.94-2.01,2-2.78,2.93-.42.51-1.04,1.26-1.38,1.53-1.61.43-2.91,1.63-3.45,3.21-.11.33-1.53,1.04-2.21,1.38-1.47.74-3.14,1.58-4.47,3.11-1.34,1.54-2.69,2.51-4.26,3.64-.45.32-.9.65-1.36.99-.27.2-.53.44-.75.69-6.16,6.94-7.91,21.42-9.18,35.65-.09.98-.17,1.89-.25,2.72-.31,3.27-.52,6.71.59,9.74,1.33,3.61,4.32,6.7,7.78,8.36-.75.36-1.91.68-3.72.68-1.27,0-2.7-.15-4.49-.46-2.52-.44-3.09-1.46-3.31-3.31-.7-5.91-.44-11.88-.19-17.66.07-1.55.13-3.09.18-4.62.07-2.19.1-4.35.12-6.44.08-6.87.15-13.36,1.88-19.47l3.69-13.03c1.23-4.34,1.58-8.5,1.83-12.39l.8-12.23s0-.07,0-.11l.49-11.4c.74-17.27,1.44-33.58,13.83-45.19,1.18-1.1,1.75-2.71,1.54-4.31-.21-1.6-1.19-3-2.61-3.76-10.42-5.52-17.02-16.22-16.89-27.05,1.31-.56,2.35-1.67,2.8-3.08.46-1.44.82-2.88,1.16-4.26.65-2.58,1.23-4.91,2.33-6.74.43.09.91.14,1.42.14.4,0,.79-.04,1.17-.11.93-.17,1.79-.6,2.48-1.24,3.11-2.86,7.02-4.55,10.81-4.71-.33.31-.66.63-.99.94-1.18,1.11-2.39,2.26-3.6,3.5-9.38,9.56-10.87,23.11-3.71,33.72,2.98,4.42,6.48,7.97,10.7,10.86.84.58,1.83.88,2.83.88.54,0,1.08-.09,1.61-.27,5.07-1.72,10.39-2.59,15.83-2.59,3.2,0,6.52.3,9.87.89l27.91,4.93c3.21.57,6.51.81,9.69,1.04,1.01.07,2,.15,2.97.23.14.01.28.02.42.02.23,0,.47-.02.7-.05.37.09.75.13,1.13.13.14,0,.27,0,.41-.02.14-.01.28-.02.44-.02.42,0,.89.04,1.38.08.57.05,1.16.09,1.78.09.79,0,1.5-.08,2.17-.24.03,0,.06-.01.09-.02.21.03.43.04.64.04.24,0,.48-.02.72-.05,1.29-.19,2.63-.34,4.06-.51,4.63-.54,9.89-1.16,14.61-3.08.55-.23,1.11-.45,1.66-.67,6.3-2.55,13.45-5.43,17.94-11.25l7.02-9.07c.36-.47.64-1,.82-1.56.97-3.09,2.92-5.95,4.99-8.96,2.17-3.17,4.41-6.44,5.81-10.39.78-2.19,1.46-4.42,2.11-6.57,2-6.57,3.89-12.79,8.39-17.12M169.37,148.48c-2.22,9.43-3.61,18.13-4.26,26.66-.62,8.13-.18,16.43,1.44,26.91,1.2,7.76,6.43,11.02,9.9,13.18.28.17.6.37.92.58-.45.11-.91.23-1.37.38-.97.31-2.09.46-3.53.46-1.21,0-2.47-.1-3.8-.21-1.24-.1-2.52-.21-3.81-.22-.02,0-.05,0-.07,0-.6,0-1.19.11-1.73.31.17-.79.15-1.62-.07-2.42-1.67-5.93-2.46-11.08-3.25-16.72-.23-1.62-.49-3.17-.75-4.67-.56-3.23-1.09-6.29-1.04-9.33.05-3.56,1-7.01,2.01-10.67.54-1.94,1.09-3.95,1.5-6,.31-1.53.59-3.03.87-4.5.74-3.93,1.45-7.67,2.55-11.37,1.54-.71,3.03-1.5,4.49-2.37M183.95,0c-1.29,0-2.71.68-3.74,1.57-7.93,6.8-9.4,17.13-12.74,26.52-2.47,6.95-8.57,12.22-10.86,19.53l-7.02,9.07c-4.01,5.18-11.01,7.68-17.54,10.35-5.39,2.2-11.86,2.46-17.49,3.28-.22-.24-.43-.35-.68-.35-.31,0-.69.17-1.23.47-.3.07-.64.1-1,.1-.91,0-1.99-.17-3.16-.17-.28,0-.56,0-.85.03-.2-.15-.44-.38-.75-.52-.06-.03-.13-.04-.19-.04-.31,0-.63.29-.88.47-3.97-.34-8.27-.51-12.22-1.21l-27.91-4.93c-3.6-.64-7.18-.97-10.74-.97-5.88,0-11.7.91-17.44,2.86-3.79-2.6-6.85-5.77-9.39-9.54-6.06-8.98-4.33-19.82,3.14-27.43,3.38-3.45,6.86-6.26,10.5-10.65-2.84-1.58-5.89-2.31-8.91-2.31-5.34,0-10.64,2.25-14.76,6.03-.09.02-.18.02-.27.02-.92,0-2.02-.72-2.86-.72-.22,0-.42.05-.59.17-4.22,3.98-4.58,9.73-6.23,14.89-2.19.24-2.76.29-2.93,2.39-1.11,13.51,6.67,26.91,19.44,33.68-13.65,12.79-14.62,30.33-15.4,48.62l-.49,11.4-.8,12.23c-.23,3.53-.54,7.42-1.65,11.35l-3.69,13.03c-2.47,8.73-1.88,17.67-2.18,27.12-.24,7.51-.9,15.12.04,23.03.51,4.29,2.99,6.87,7.41,7.64,1.69.3,3.53.54,5.36.54,3.2,0,6.36-.74,8.61-3.2.4-1.38.59-4.15.19-6.19-3.19-.16-6.94-3.03-8.18-6.38-.77-2.1-.55-4.94-.31-7.53.86-9.03,2.05-28.59,8.2-35.52,2.16-1.61,4.25-2.88,6.4-5.36,1.79-2.06,6.38-2.5,7.64-6.15,2.49-.51,3.95-3.67,6.08-5.45,7.84-6.51,12.75-15.67,17.39-25.13,15.79,6.22,30.89,11.67,47.39,15.47,7.96,1.84,15.6,3.85,24.59,4.33-.49,10.13.22,18.98.83,29.02.43,7.02,3.34,45.53,8.56,48.96,2.54,1.66,7.41,2.85,12.13,2.85,5.56,0,10.91-1.64,11.99-6.08,2.4.03,5.03.44,7.67.44,1.69,0,3.39-.16,5.04-.69,2.5-.8,7.08-.96,6.11-5.4-1.07-4.89-10.69-4.9-12.13-14.27-1.29-8.34-2.08-16.81-1.39-25.77,1.08-14.07,4.2-27.7,8.27-41.12-5.31,5.93-10.85,10.05-17.56,12.77-2.09,6.13-2.92,12.02-4.24,18.56-1.13,5.61-3.52,11.28-3.61,17.59-.07,5.01,1.13,9.62,1.84,14.76.78,5.58,1.6,11.08,3.39,17.39-7.7-.56-8.2-22.13-7.71-26.91,1.45-14.3,4.05-28.39,8.09-42.56,2.16-.52,3.2-2.19,5.07-3,9.68-4.23,15.21-13.64,21.03-22.47,6.45-9.79,11.48-20.37,14.7-32.56,2.26-8.57,6.66-16.95,7.29-26.57l14.43-9.4c7.58-4.94,9.36-19.1,4.77-21.02-.57-.24-1.18-.34-1.83-.34-3.26,0-7.48,2.51-11.96,2.51-3.11,0-6.35-1.2-9.5-5.28-3.17-4.09-9.27-4.59-14.21-5.92-.21-4.07.83-20.75-3.6-21.86-.25-.06-.51-.09-.78-.09h0Z"/>
      <path d="M62.85,135.27c.76.25,1.51.53,2.27.82-2.06,2.74-4.36,5.3-6.99,7.78,1.53-2.63,2.97-5.31,4.38-7.96.11-.21.23-.43.34-.64M33.06,169.55c-.94,3.07-1.56,6.56-2.15,10.15l-.05.28c-1.27,7.8-1.48,16.02-1.67,23.97l-.03,1.09c-.1,4.02,3.16,6.86,6.03,9.37.54.47,1.27,1.11,1.9,1.71-1.09.48-2.32.72-3.69.72-2.2,0-4.6-.64-6.81-1.78-1.96-12.29-.97-27.29.25-40.77.34-.31.68-.7.99-1.17.75-1.17,2.61-2.17,4.58-3.22.22-.12.44-.23.66-.35M60.31,129.46c-4.19,7.67-7.85,15.33-13.15,21.56-3.45,4.05-8.01,7.02-11.38,10.58-3.51,3.71-9.5,4.7-12.15,8.82-.42.66-1.49.48-1.59,1.6-1.38,14.95-2.66,32.24.04,46.16,3.34,2.26,7.42,3.66,11.34,3.66,3.05,0,6-.85,8.45-2.8,5.5-4.38-7.79-9.74-7.69-13.88.21-8.31.36-16.58,1.63-24.38.76-4.63,1.87-11.74,4.52-15,3.11-3.82,7.58-7.66,11.14-10.15,8.49-5.94,15.54-12.54,21.18-21.73-3.71-1.69-8-3.68-12.34-4.46h0Z"/>
      <path d="M196.84,1.83c-2.3,0-5.72,1.57-5.74,3.14l-.19,14.71c2.48.84,4.33,1.52,7.01,1.52.12,0,.24,0,.37,0,.77-6.52,3.44-13.01.46-18.57-.3-.56-1.02-.79-1.91-.79h0Z"/>
    </g>
  </g>
</svg>