<?xml version="1.0" encoding="UTF-8"?>
<svg id="_레이어_2" data-name="레이어 2" xmlns="http://www.w3.org/2000/svg" viewBox="0 0 268.14 287.61">
  <g id="_레이어_1-2" data-name="레이어 1">
    <g>
      <path d="M213.81,25.21c.28.32.55.65.82.98.94,1.14,2.33,1.82,3.81,1.84,12.78.16,14.19,2.25,17.61,7.28,2.91,4.29,6.9,10.17,17.46,16.44,3.22,1.91,7.07,4.94,7.13,8.48.04,2.28-3.86,4.55-7.08,4.81l-21.19,1.68c-7.69.61-11.04,4.59-12.49,7.82-.76,1.68-1.83,3.5-2.97,5.43-2.1,3.55-4.27,7.22-5.22,11.24-.57,2.43-1.33,4.9-2.07,7.29-1.36,4.42-2.77,8.99-3.18,13.8-1.09,12.84-3.23,27.78-10.76,41.21-5.67,10.11-12.86,17.67-21.45,22.6,1.52-4.93,2.99-10.04,2.97-15.6,0-2.33-1.63-4.35-3.91-4.86-.37-.08-.73-.12-1.1-.12-1.89,0-3.67,1.08-4.51,2.85-.48,1-.92,2-1.36,2.96-.92,2.05-1.79,3.99-2.61,5.18-.34.5-.59,1.06-.74,1.65l-10.2,42.22c-5.15,21.34-5.83,42.77-2,63.71.47,2.56,1.84,4.43,3.05,5.94-.43.04-.85.05-1.24.05-.84,0-1.48-.08-1.95-.18-.28-1.83-.95-5.04-3.56-7.04-.93-23.54-1.73-48.43-1.09-72.88.28-10.87-.02-25.08-4.91-38.51-.73-2.01-2.64-3.29-4.7-3.29-.37,0-.74.04-1.12.13-2.46.56-4.11,2.87-3.86,5.38l2.37,23.5c.1,1.01.28,1.89.43,2.66.01.07.03.14.04.21-8.79,2.1-19.21,3.29-29,3.29-15.39,0-28.44-2.84-37.24-8.05l3.97-16.44c1.05-4.35,2-9.02,1.07-14.09-.42-2.3-2.38-4.01-4.72-4.1-.07,0-.13,0-.2,0-2.26,0-4.25,1.52-4.83,3.72l-7.94,30.04c-1.44,5.43-3.12,9.84-5.45,14.28-1.02,1.93-1.84,3.74-2.63,5.49-.95,2.09-1.85,4.07-2.93,5.91l-5.47,9.24-10.17,14.55c-3.22,4.61-4.83,11.27-5.23,15.58-.08.83-.16,1.66-.24,2.49-.71,7.34-1.44,14.93-.06,22.4.45,2.44,1.74,4.27,2.87,5.74-.28.02-.57.02-.86.02-.8,0-1.5-.07-2.09-.17-.61-2.51-2.12-4.54-3.29-5.96l2.32-30.63c.14-1.8.13-3.5.12-5.15-.02-2.9-.03-5.4.77-7.51.63-1.64,1.3-3.32,1.96-4.93,2.22-5.49,4.51-11.18,5.61-17.23l.13-.69c.71-3.88,1.52-8.28,1.8-12.36.39-5.7.49-11.38.3-17.87-.2-7.08-1.37-13.37-2.51-19.45-.2-1.09-.41-2.17-.6-3.26-.3-1.66-1.04-3.55-2.07-6.17-2.41-6.13-6.05-15.4-4.74-24.71.3-2.13-.8-4.22-2.73-5.17l-.27-.13c-2.34-1.16-4.33-2.15-6.13-3.28.91-1.6.9-3.64-.19-5.26-.27-.4-.54-.8-.81-1.19-1.04-1.53-2.02-2.98-2.85-4.4.33-.12.65-.28.96-.48.58-.37,1.07-.85,1.45-1.41.95.54,2.08.95,3.43.98.04,0,.08,0,.11,0,.53,0,1.05-.08,1.56-.25.25-.08.49-.17.72-.25l6.2,6.1c.97.96,2.24,1.44,3.51,1.44s2.51-.47,3.48-1.41c5.28-5.11,11.2-7.74,17.32-10.2,4.47-1.8,8.75-2.63,13.46-2.63,4.16,0,8.37.64,12.84,1.33,5.18.79,11.05,1.69,17.81,1.72h1.17c3.31,0,32.65-.09,41.9-3.29,14.09-4.88,30.34-10.94,44.75-21.27,2.57-1.84,3.94-4.32,5.04-6.32.66-1.2,1.35-2.45,1.95-2.8.67-.4,1.24-.95,1.66-1.61l14.53-22.69c.59-.92.85-2,.78-3.06.21-.27.39-.56.55-.87.65-1.33.68-2.88.08-4.23-.73-1.64-1.51-3.21-2.34-4.71l3.71,2.02c.75.41,1.57.61,2.39.61,1.29,0,2.57-.5,3.53-1.46,1.24-1.23,1.72-2.98,1.36-4.62M182.16,4.65c-3.07,0-6.17.36-9.27,1.12,15.39,3.98,27.88,5.31,36.04,20.51l-21.24-11.55c-3.09.62-3.79,6.49-3.36,9.53,1.09,7.79,7.33,12.88,15.24,14.58l-14.53,22.69c-3.44,2.04-3.95,6.92-7.35,9.36-13.25,9.5-27.96,15.25-43.47,20.61-7.07,2.44-29.66,3.02-40.27,3.02-.4,0-.78,0-1.15,0-12.15-.05-21.1-3.04-30.67-3.04-4.79,0-9.74.75-15.33,2.99-6.71,2.7-13.13,5.62-18.93,11.25l-6.75-6.64c-.87-.85-1.63-1.14-2.39-1.14-.89,0-1.78.39-2.85.74-2-.05-3.6-3.5-6.4-3.5-.15,0-.3,0-.46.03-1.42.19-.54,3.23-.83,4.68-1.58-.39-2.89-1.24-4.52-1.24-.37,0-.76.04-1.17.15.67,5.29,3.83,9.56,6.93,14.17l-3.47,2.62c3.59,3.61,7.41,5.47,11.99,7.75-2.01,14.36,6.04,27.97,6.85,32.46,1.26,7,2.81,14.03,3.03,21.96.15,5.47.14,11.11-.29,17.39-.28,4.03-1.12,8.5-1.85,12.49-1.33,7.27-4.58,14.12-7.32,21.28-1.69,4.42-.83,9.14-1.21,14.06l-2.48,32.63c1.54,1.99,4.39,4.59,3.54,7.71,1.81,1.29,4.38,1.8,6.98,1.8,2.84,0,5.69-.61,7.6-1.47.47-4.52-4.04-6.71-4.69-10.2-1.39-7.56-.4-15.39.36-23.52.38-4.11,1.91-9.68,4.35-13.17l10.28-14.71,5.56-9.4c2.17-3.66,3.5-7.46,5.69-11.62,2.53-4.82,4.32-9.52,5.86-15.33l7.94-30.04c.74,4.03-.01,7.87-1.01,12.02l-4.79,19.86c10.82,7.89,27.07,10.81,42.93,10.81,11.92,0,23.61-1.64,32.65-4.06.25-.07.7-.39,1.09-1.07,1.06-1.88.03-3.96-.23-6.53l-2.37-23.5c4.18,11.49,4.95,23.78,4.61,36.67-.66,25.33.18,50.52,1.21,76.3,3.91.55,3.18,4.7,3.96,7.05,1.63,1.4,3.98,1.89,6.42,1.89,2.91,0,5.95-.7,8.07-1.39.64-4.68-4.28-6.81-4.96-10.5-3.73-20.41-2.99-41.22,1.94-61.64l10.2-42.22c1.52-2.21,2.81-5.59,4.35-8.82.03,8.19-3.77,15.57-5.61,24.42,15.09-4.95,25.9-15.55,33.44-28.98,7.39-13.17,10.06-27.68,11.38-43.23.58-6.77,3.48-13.33,5.14-20.37,1.25-5.3,5.6-10.69,7.88-15.77,1.58-3.51,4.99-4.62,8.32-4.89l21.19-1.68c5.24-.42,11.78-4.17,11.69-9.88-.1-5.86-5.16-10.08-9.57-12.7-22.92-13.62-11.07-24.1-37.56-24.43-8.8-10.77-22.23-18.37-36.35-18.37h0ZM198.22,35.7c-3.82,0-6.79-2.37-8.74-4.91-2.71-3.53-3.65-8.03-1.49-12.47,5.49,4.57,9.52,10.16,12.6,17.08-.82.2-1.61.3-2.37.3h0Z"/>
      <path d="M175.87,189.69c-3.15,12.83-6.28,26.05-7.5,39.52-1.43,15.69-.9,29.39,1.59,41.89.46,2.29,1.65,4.03,2.77,5.45-.86,0-1.78-.06-2.77-.17-.59-2.85-1.67-5.34-3.88-6.83l-1.14-49.6c0-.1,0-.2-.02-.3-.57-6.83,2.79-18.8,5.01-26.72.05-.19.1-.37.15-.55,1.98-.84,3.89-1.74,5.78-2.69M183.38,180.01c-6.17,3.37-11.4,6.31-17.45,8.67-2.36,8.56-6.71,22.74-5.99,31.38l1.19,51.77c.07,3.26,3.45-1.75,4.39,8.91,2.29.45,4.84.81,7.32.81s4.74-.34,6.71-1.27c1-4.32-3.95-6.53-4.68-10.16-2.59-12.96-2.78-26.58-1.52-40.46,1.53-16.81,6.07-33.1,10.03-49.66h0Z"/>
      <path d="M186.6,0c-1.54,0-3.09.09-4.65.26,4.63,3.26,10.17,3.35,15.19,5.31,19.72,7.7,19.61,16,23.91,16,.87,0,1.92-.34,3.35-1.09C215.64,8.17,201.67,0,186.6,0h0Z"/>
      <path d="M63.96,197.15l1.45.8s-.02.05-.04.08c-1.48,3.13-2.79,5.89-4.54,7.94.05-.12.1-.25.15-.38l2.97-8.44M57.99,210.42c-.85,2.01-1.89,3.88-3.08,5.57.88-1.82,1.9-3.65,3.08-5.57M42.97,234.03c-4.07,12.28-5.3,25.06-3.53,37.03.33,2.27,1.64,4.09,2.81,5.57-.13,0-.27,0-.41,0-1.05,0-1.95-.09-2.67-.2-.48-2.07-1.41-4.49-3.39-6.41,1.27-9.48,1.49-15.56,1.64-19.71.25-6.84.32-8.84,5.56-16.28M61.2,189.92l-4.93,14c-2.94,4.26-5.69,8.86-7.83,14.42-22.42,29.49-12.7,17.74-18.05,54.05,3.48,1.43,3.99,4.93,4.3,7.8,1.6.95,4.41,1.44,7.14,1.44,2.56,0,5.06-.43,6.46-1.29,2.5-3.58-3.45-6.92-3.91-10.02-1.74-11.82-.26-24.21,3.57-35.43,1.43-4.2,5.47-6.39,6.5-10.92,3.75-3.29,6.85-7.93,8.83-13.35,4.01-3.72,5.81-9.2,8.71-14.75l-10.8-5.95h0Z"/>
    </g>
  </g>
</svg>