<?xml version="1.0" encoding="UTF-8"?>
<svg id="_레이어_2" data-name="레이어 2" xmlns="http://www.w3.org/2000/svg" viewBox="0 0 363.85 288.46">
  <g id="_레이어_1-2" data-name="레이어 1">
    <g>
      <path d="M39.61,215.71c-.08,2.32.27,4.75,1.39,7.27.54,1.22,1.53,2.13,2.71,2.61-.3.08-.59.18-.88.31-5.06,2.36-7.11,8.28-4.76,13.76.84,1.97,1.96,3.57,3.23,4.94-2.28-.18-4.72-.74-7.42-1.69-2.42-.85-4.64-1.88-6.65-3.1,1.18-1.79,1.09-4.18-.3-5.89-.11-.14-.22-.28-.33-.41.13-.09.25-.18.38-.28.64-.53,1.12-1.19,1.42-1.91.13.01.26.02.39.02.89,0,1.79-.24,2.59-.72,1.12-.68,1.9-1.74,2.23-2.95.27.04.54.07.82.07,1.26,0,2.51-.47,3.48-1.41,1.67-1.62,2.21-3.78,1.61-6.42l-.03-.14c-.21-1.14-.12-2.52.13-4.04M47.29,225.65s0,0,0,.01c0,0-.02,0-.03,0,0,0,.02,0,.02,0M20.21,162.8c-4.96,14.34,11.57,16.77,16.03,26.7,5.12,11.4-3.26,22.64-1.67,31.17.12.67.45,1.48-.14,2.05-2.36-2.27-3.43-6.24-3.42-9.63l.08-16.24c.08-17.53-17.18-16.74-20.42-24.95-.47,10.14,17.13,7.71,16.64,24.97l-.46,16.19c-.12,4.27,1.13,7.88,1.95,13.28-12.25-8.97-1.86-25.46-9.07-33.42-1.22-1.34-1.96-3.7-4.03-3.7-.45,0-.96.11-1.56.37,2.74,1.18,3.31,3.23,4.88,4.44,3.03,12.22-4.72,20.47,4.79,35.34-7.55-7.18-6.77-18.36-11.05-31.19-.98-2.95-2.8-4.28-4.32-6.15-2.08-2.56-4.45-4.24-8.12-4.24-.1,0-.2,0-.3,0l7.3,4.56c8.92,17.62,1.4,27.01,15.75,44.72-7.84-5.1-11.11-13.71-13.45-22.43-1.13-4.2-.65-8.83-4.1-11.93.8,20.83,7.1,38.03,26.73,44.92,3.51,1.23,7.11,2.04,10.74,2.04,3.39,0,6.8-.7,10.2-2.41-4.32-2.98-8.53-4.95-10.5-9.56-1.28-2.99-.35-6.03,2.28-7.27.05,0,.1,0,.14,0,3.66,0,5.77,3.51,10.12,5.09-1.82-7.81-6.44-16.44-1.75-25.09,7.45-13.72-2.88-21.81,4.86-32.63-9.69,4.4-3.23,18.21-6.55,25.76-2.51,5.7-5.24,10.79-6.21,17.4-4.87-10.93,10.79-20.08-2.62-39.73-2.94-4.3-4.64-8.58-3.91-14.32-7.77,12.48,11.99,19.8,3.18,38.86,2.4-32.06-21.7-22.19-22.01-42.96h0Z"/>
      <path d="M148.13,98.66c.12.36.37.72.69,1.07-.44-.66-.69-1.07-.69-1.07h0Z"/>
      <path d="M245.92,41.05c13.53,0,17.44,3.9,20.03,6.49,1.53,1.53,3.44,3.43,6.51,3.43.44,0,.88-.04,1.32-.13.63-.12,1.25-.18,1.86-.18,1.46,0,2.38.35,2.38.35,0,0,0,0,0,0,.64.27,1.31.4,1.96.4,1.91,0,3.72-1.1,4.56-2.94.18-.41.31-.83.38-1.25.76.47,1.66.74,2.61.74.12,0,.24,0,.36-.01,1.14-.08,2.16-.54,2.95-1.24,2.21,3.54,5.34,5.77,10.75,9.4,1.84,1.24,3.93,2.64,6.43,4.4,3.77,2.66,5.98,5.45,6.4,8.07.37,2.33-.77,4.08-.98,4.37-.88,1.01-1.25,2.25-1.15,3.59.1,1.35.81,2.53,1.86,3.39,7.11,5.91,11.14,10.81,12.83,13.08-.27.27-.74.62-1.14.82-1.13.47-2.01,1.31-2.52,2.39-.93.49-1.72,1.29-2.19,2.31-.07.14-.14.3-.23.46-5.19-13.77-15.38-20.86-15.87-21.19-.86-.58-1.84-.87-2.82-.87-1.25,0-2.49.47-3.45,1.38-1.71,1.62-2.05,4.22-.82,6.23,0,0,.03.05.09.14-.14.07-.28.15-.42.23-2.17,1.33-2.99,4.08-1.91,6.39.56,1.19,2.09,4.86,2.5,7.58.09.62.22,1.27.39,1.91-.08,0-.16.02-.23.03-1.41.21-2.61,1.04-3.37,2.22-.53.13-1.37.24-2.14.24-.03,0-.07,0-.1,0-.07,0-.14,0-.2,0-.29-.48-.67-.9-1.11-1.26l-1.43-1.16c-.64-.52-1.38-.85-2.15-1.01-.28-.75-.75-1.43-1.36-1.97.21-.22.37-.38.48-.48,2.02-1.18,3.09-3.57,3.79-8.32.02-.12.03-.25.04-.37.31-4.3-.61-7.64-2.73-9.92-1.71-1.84-4.12-2.85-6.77-2.85-1.29,0-2.26.23-2.64.34-.56.16-1.13.24-1.74.24-3.58,0-7.37-2.75-8.89-4.12-2.08-3.06-12.31-16.97-26.67-16.97-.27,0-.54,0-.81.01-6.22.23-14.73,4.02-19.94,20.82-.09.3-.16.61-.19.92-5.34,24.04,4.01,42.16,26.37,51.05l25.49,10.14c28.44,11.31,43.82,36.03,40.13,64.5-1.23,9.47-4.69,22.39-14.25,30.2-1.73,1.41-3.86,4-5.16,5.78-1.92,2.64-2.19,7.33-1.1,11.22-1.45-1.18-2.68-2.52-3.61-4.07-.93-1.54-2.58-2.41-4.28-2.41-.71,0-1.43.15-2.11.47-4.33,2.01-8.75,2.45-13.43,2.92l-.27.03c-1.52.15-3.05.23-4.57.23-8.42,0-16.58-2.29-24.26-6.82-.79-.46-1.66-.69-2.54-.69-1.12,0-2.24.38-3.15,1.12-.22.18-.6.44-1,.72-1.02.71-2.45,1.7-3.64,3.04.04-2.23.44-4.45,1.29-6.68.69-1.8.28-3.83-1.05-5.23-12.89-13.52-16.4-27.93-19.66-45.37l-4.43-23.77c-1.49-8-3.73-14.51-6.84-19.9-4.22-7.32-10.39-11.52-16.91-11.52-.15,0-.29,0-.44,0-10.69.31-19.43,13.33-21.11,20.22-3.2,13.11-1.66,25.48-.18,37.45,1.29,10.4,2.63,21.15.75,32.28-.45,2.64,1.27,5.17,3.89,5.73,1.81.38,3.68,1.17,5.67,2,2.18.92,4.42,1.86,6.82,2.37-2.22.87-4.59,1.07-7.97,1.07-1.93,0-4.25-.09-7.52-.3-.92-.06-1.72-.09-2.44-.09-3.64,0-5.31.79-7.12,1.83-1.01.58-2.15,1.23-5.41,2.02-1.78.43-3.69.66-5.53.66-2.86,0-5.32-.54-7.12-1.56-.76-.43-1.61-.65-2.47-.65-.5,0-.99.07-1.48.22-1.32.41-2.41,1.34-3.02,2.59-.7,1.44-2,2.73-3.5,4.24-.92.91-1.92,1.91-2.87,3.05-.06-4.24,2.11-8.87,4.29-11.94.27-.37.48-.78.63-1.21.9-2.51.42-5.48-1.45-9.06-2.03-3.88-3.19-7.92-4.41-12.19-.47-1.65-.97-3.36-1.51-5.06-1.89-5.9-4.31-11.34-7.2-16.17-2.06-3.45-5.85-5.51-10.16-5.51-.21,0-.42,0-.62.02-3.62.18-6.56,3.06-8,4.77-.71.85-1.13,1.91-1.17,3.02-.15,3.93-1.1,8.28-2.01,12.48-.65,2.98-1.32,6.07-1.74,9.1-.08.57-.15,1.13-.23,1.7-.78,5.8-1.51,11.28-4.42,16.48-2.26,4.05-5.43,6.99-9.25,8.68,1.8-1.08,3.46-2.42,4.93-4.01,7.49-8.05,7.47-29.67,7.47-29.89-.09-8.67.55-15.62,4-21.31,2.42-4,4.53-5.48,9.01-6.34,1.35-.26,2.69-.39,3.97-.39,5.54,0,10.07,2.34,13.44,6.95,5.26,7.18,9.03,15.34,10.62,22.97.1.48.27.93.5,1.36l6.68,12.33c1.68,3.11,4.52,4.96,7.6,4.96.01,0,.04,0,.05,0,3.02-.02,5.76-1.97,7.16-5.08.23-.51.37-1.06.42-1.62.34-3.95.48-8.67-.99-13.75-.43-1.48-1.51-2.68-2.94-3.25-.58-.23-1.18-.35-1.79-.36.18-2.24.22-4.46.26-6.65.03-1.54.06-3.13.14-4.69.09-1.82-.81-3.54-2.35-4.5-.21-.13-.42-.24-.65-.34.41-2.47.51-4.93.54-7.25.02-1.35-.51-2.65-1.47-3.6-.32-.32-.68-.59-1.07-.81,1.34-3.18,2.28-6.81,2.39-11.04.05-1.75-.82-3.39-2.29-4.34-.69-.44-1.46-.7-2.24-.77,3.4-6.05,4.96-11.29,5.05-11.62.7-2.4-.48-4.92-2.71-5.94.74-.77,1.56-1.54,2.35-2.21,1.76-1.49,2.28-3.99,1.24-6.06-.17-.33-.36-.63-.59-.91h.02c1.86-1.2,2.72-3.46,2.12-5.58-.29-1.03-.89-1.91-1.68-2.55,0,0,.02-.01.02-.02,1.19-1.02,5.64-2.17,8.88-2.56,2.45-.29,4.32-2.32,4.41-4.78.02-.54-.05-1.06-.19-1.55.25.03.49.06.71.09,2.29.3,3.33.43,4.09.43,2.78,0,4.58-1.9,5.05-3.92,1.66.36,2.87.55,3.32.55,2.25,0,4.14-1.33,4.85-3.32.43.16.81.29,1.12.39.24.08.49.14.74.19,3.19.54,6.19,1.13,8.91,1.74.31.07.61.11.92.12.28.12.57.22.88.3,2.82.68,5.3,1.38,7.37,2.09.53.18,1.08.27,1.62.27.16,0,.31,0,.47-.02.43.5.98.93,1.61,1.23.99.48,1.49.82,1.67.95.96,1.14,2.37,1.77,3.82,1.77.7,0,1.42-.15,2.1-.46,2.32-1.07,3.46-3.73,2.63-6.15l-1.87-5.5c-.66-1.95-2.46-3.3-4.52-3.39-.07,0-.14,0-.21,0-.1,0-.19,0-.29,0-.1-1.94-1.32-3.66-3.15-4.39-.6-.24-1.22-.35-1.84-.35-.45,0-.9.06-1.33.18.96-5.61,2.85-8.88,2.85-8.88,1.34-2.21.77-5.08-1.31-6.61-.29-.21-.6-.39-.92-.54.79-.79,1.58-1.58,2.35-2.34,1.79-1.76,1.99-4.58.47-6.58-.16-.21-.33-.4-.51-.58,1.77-1.44,2.65-2.39,2.75-2.5,1.58-1.72,1.75-4.31.41-6.23-.61-.88-1.46-1.51-2.41-1.85,2.32-1.15,6.51-2.8,10.51-4.08.46-.15.89-.36,1.28-.62.95.83,2.13,1.25,3.3,1.25,1.32,0,2.64-.52,3.62-1.55l2.15-2.26c.74-.77,1.19-1.74,1.33-2.76,1.08-.39,2.01-1.15,2.6-2.16.35-.46,1.64-1.54,2.68-2.25.69-.47,1.24-1.09,1.62-1.81.9-.09,1.77-.43,2.5-.99,1.01-.76,2.16-1.1,2.35-1.15,1.31-.27,2.4-1.04,3.11-2.14.52.18,1.08.28,1.65.28.17,0,.34,0,.52-.03,3.18-.33,6.16-.5,8.87-.5M235.35,160.32c-.15-.01-.31-.02-.47-.02-.14,0-.28,0-.42.02l-1.02.09c-1.39.12-2.67.81-3.53,1.91-.86,1.1-1.22,2.51-.99,3.89l3.12,18.94c1.55,9.39,6.51,18.15,10.11,23.93,4.22,6.78,11.33,11.26,19.01,11.98.74.07,1.48.11,2.21.11,6.57,0,12.11-2.81,16.02-8.12.1-.14.19-.28.28-.43l.08-.14c3.01-5.11,6.76-11.47,4.67-19.86-.54-2.16-2.45-3.71-4.67-3.78-.06,0-.12,0-.18,0-.76,0-1.49.17-2.14.48.66-5.83-.41-11.63-3.25-16.97-.88-1.65-2.59-2.65-4.41-2.65-.28,0-.56.02-.84.07-.79.13-1.51.45-2.13.9-.24-1.12-.52-2.23-.86-3.34-.64-2.12-2.6-3.55-4.78-3.55-.13,0-.26,0-.39.01-.88.07-1.7.36-2.4.83-1.19-3.05-2.86-5.88-5-8.48-.97-1.18-2.4-1.82-3.86-1.82-.69,0-1.39.14-2.04.44-.54.24-1.02.57-1.43.97-.8-.99-1.69-1.94-2.69-2.86-.94-.87-2.16-1.32-3.39-1.32-.76,0-1.53.17-2.24.53-1.86.93-2.95,2.91-2.74,4.98.08.77.16,1.54.25,2.29.04.32.07.64.11.96M196.75,199.97c.35,1.1.66,3,.72,6.68-1.76-2.83-4.63-4.47-7.04-5.58.18-.26.32-.53.45-.8.32.16.66.3,1.01.44.58.22,1.18.33,1.79.33,1.01,0,2.02-.31,2.87-.91.07-.05.14-.1.21-.15M326.68,249.14c.2,1.47,1.05,2.79,2.34,3.59.19.11.38.22.58.3-1.17,1.73-1.69,2.46-4.57,2.88.76-2.57,1.02-4.81,1.06-6.77.09,0,.18,0,.27,0,.11,0,.22,0,.32-.01M143.46,270.36s.04.06.07.09c.07.1.14.19.21.28-.31.27-.61.55-.9.85-1.19,1.23-1.66,2.98-1.27,4.62-1.18-.22-2.35-.73-3.74-1.33-.52-.22-1.06-.46-1.64-.69,2.82-.61,5.38-2.17,7.26-3.82M250.98,271c.15.18.3.36.47.51-.21.25-.41.51-.58.75-.78,1.09-1.07,2.43-.85,3.72-.26.05-.52.11-.79.17-.1.02-.19.04-.26.04-.39,0-1.18-.5-1.95-.98-.61-.39-1.3-.82-2.08-1.21,2.27-.54,4.35-1.7,6.04-3M274.74,2.5s2.56,12.22,1.24,24.52c0,0-6.19-7.18-9.99-7.6,0,0,9.74,12.63,11.23,19.65,1.36,6.4,2.57,7.24,2.77,7.33-.25-.1-1.86-.75-4.34-.75-.84,0-1.79.07-2.81.27-.13.02-.25.04-.37.04-3.51,0-4.69-9.92-26.54-9.92-2.78,0-5.89.16-9.39.52,0,0-8.88-15.65-22.3-15.65-.27,0-.55,0-.82.02,0,0-.8.11-2.11.11-2.75,0-7.73-.51-12.2-3.64,0,0,3.16,5.95,11.23,5.95.11,0,.22,0,.33,0,.13,0,.26,0,.38,0,8.13,0,14.67,5.12,16.29,8.48,1.65,3.41,3.3,6.72,3.3,6.72,0,0-2.2.5-4.24,2.04,0,0-5.11-7.21-11.6-7.21-1.16,0-2.36.23-3.59.77,0,0,10.51,1.27,11.28,9.08,0,0-3.25,2.2-4.18,3.85,0,0-7.68-8.92-16.97-8.92-2.08,0-4.25.45-6.43,1.55,0,0,.49-.05,1.33-.05,3.01,0,10.51.67,15.68,6.88,0,0,2.86,3.74,3.14,4.57l-2.15,2.26s-6.43-5.87-11.66-5.87c-.23,0-.45.01-.67.03,0,0,4.73,2.7,6.22,5.45,0,0-11.34,3.63-13.98,6.11-2.57,2.41-15.15,8.11-17.19,8.11-.06,0-.1,0-.14-.01-.06-.01-.1-.02-.12-.02-.27,0,3.99,1.37,9.71,1.37,3.38,0,7.28-.48,11.05-2.01,0,0-5.83,6.39-19.71,11.56,0,0,2.48.65,5.97.65,3.25,0,7.38-.56,11.21-2.74,0,0-9.03,8.92-10.24,10.79s-7.05,3.96-7.05,3.96c0,0,2.13.79,5.1.79,3.3,0,7.65-.97,11.3-5.09,0,0-2.53,4.18-3.63,11.45-.76,5.04-2.64,7.48-3.71,8.5-2.64-.59-5.67-1.19-9.17-1.79,0,0-11.56-3.85-13.98-8.92-.36-.74-.58-1.07-.69-1.07-.64,0,2.6,10.79,6.64,12.29.67.25.78.36.49.36-1.66,0-16.27-3.59-19.84-7.55,1.74,2.64,6.49,9.34,10.54,10.49,1.1.31,1.31.43.92.43-1.26,0-8.8-1.25-12.5-1.25-.41,0-.78.02-1.08.05-.19.02-.38.03-.58.03-3.82,0-9-3.88-9-3.88,0,0,4.51,9.14,13.54,10.9,0,0-8.37.99-11.56,3.74-1.95,1.68-4.88,2.01-6.87,2.01-1.27,0-2.16-.13-2.16-.13,0,0,3.85,5.72,9.14,5.83l-11.56,7.38s2.69.44,5.76.44c1.53,0,3.16-.11,4.59-.44,0,0-6.39,5.39-6.83,8.7-.44,3.3-4.73,7.49-4.73,7.49,0,0,8.81-1.76,10.35-5.61,0,0-3.3,11.34-11.01,19.38,0,0,.1.02.28.04-.1.09-.18.18-.28.27,1.01.59,2.01.84,3.03.84,2.28,0,4.62-1.23,7.27-2.53-.17,6.39-2.61,11.37-6.04,16.34.54.18,1.01.25,1.45.25,1.69,0,2.84-1.04,4.72-1.07-.07,5.19-.47,10.2-3.75,14.22.37.07.71.1,1.03.1,2.06,0,3.27-1.36,5.19-2.43-.35,6.92.26,13.46-2.2,19.77.15,0,.29.01.43.01,2.89,0,3.85-1.79,6.29-3.2,1.21,4.18,1.14,8.09.81,11.94-.49,1.1-1.46,2.11-2.63,2.12,0,0-.01,0-.02,0-1.41,0-2.53-1.09-3.21-2.34l-6.68-12.33c-1.83-8.78-6.09-17.55-11.48-24.9-4.57-6.24-10.81-8.99-17.48-8.99-1.62,0-3.26.16-4.91.48-6.08,1.16-9.32,3.64-12.35,8.66-4.32,7.14-4.81,15.43-4.72,23.95.06,5.61-1.2,21.13-6.13,26.43-3.54,3.8-8.31,5.65-13.1,5.65s-9.24-1.71-12.78-5.04c-.78-.73-1.79-1.09-2.61-1.09-.47,0-.88.12-1.15.36-3.73,3.34,3.59,13.18,18.29,14.14.63.04,1.26.06,1.87.06,9.47,0,17.28-4.77,21.81-12.9,3.67-6.58,4.31-13.2,5.23-19.94.98-7.12,3.52-14.81,3.79-22.07,1.14-1.36,2.96-2.92,4.41-2.99.13,0,.25,0,.38,0,2.22,0,4.59.94,5.86,3.07,2.88,4.84,5.09,10.02,6.73,15.14,1.9,5.92,3.13,12.07,6.25,18.04.77,1.48,1.67,3.68,1.18,5.06-3.18,4.48-5.72,10.69-5.12,16.37.92,8.83,5.15,17.01,10.15,24.87-.52.16-1.02.22-1.5.22-2.02,0-3.81-1.12-5.92-1.12-.1,0-.21,0-.32,0-4.47.24-9.07,3.02-8.17,7.85,2.47-.59,5.47-2.59,8.16-2.59.81,0,1.59.18,2.32.63,1.69,1.06,3.46,1.3,5.2,1.3,1.48,0,2.94-.18,4.31-.18.86,0,1.68.07,2.45.29,3.72,1.08,6.55,3.27,10.68,3.27.95,0,1.98-.12,3.1-.39.4-.1.8-.14,1.2-.14,3.5,0,6.98,3.47,10.12,5.17,3.17-5.75-5.99-10.41-10.82-10.9,1.82-1.88,4-2.41,6.12-2.41,2.77,0,5.46.9,7.14.9.21,0,.4-.01.57-.04,2.92-.51-2.56-6.34-9.64-6.34-.99,0-2,.11-3.03.37,2.46-3.85,6.61-3.41,10.88-3.67.23-2.09-1.93-3.83-4.23-4.18-.71-.11-1.4-.16-2.06-.16-4.48,0-7.8,2.41-10.93,5.99-1.66,1.9-4.75,3.94-7.51,3.94-1.27,0-2.47-.43-3.44-1.5-4.52-4.99-6.6-12.1-7.03-18.28,2.38-3.44,6.13-5.74,7.98-9.55,2.8,1.59,6.24,2.21,9.59,2.21,2.37,0,4.69-.31,6.71-.8,8.08-1.96,6.26-3.71,11.35-3.71.6,0,1.3.02,2.13.08,3.02.19,5.58.31,7.83.31,11.19,0,14.32-2.9,25.07-14.17,1.52-1.6,2.65-3.1,2.83-4.95.02,0,.05,0,.07,0,1.15,0,1.26-1.48,2.42-2.37,1.37,2.37.81,4.44,1.52,6.76,1.13,3.7,4.23,6.83,7.96,6.83,1.08,0,2.22-.26,3.38-.85-4.07-3.42-7.49-7-6.55-12.11.58-3.13-3.12-5.97-3.1-8.14.21-20.78-5.83-6.82-2.55-26.62-.23-.03-.45-.04-.66-.04-5.73,0-5.68,9.31-5.6,13.47-5.7-2.18-4.73-10.69-6.36-11.63-.21-.12-.42-.18-.62-.18-2.31,0-3.46,7.93-.39,14.03-4.59-.95-5.09-5.32-6.98-8.32-1.85.39-2.68,2.65-2.34,4.76,2.23,13.87,20.97,7.11,16.43,22.21-4.49,3.02-7.68,9.02-13.39,10.64-4.74-.18-9.43-3.55-14.64-4.65,4.19-24.76-6.36-45.95-.64-69.37,1.33-5.46,8.64-16.18,16.4-16.41.1,0,.2,0,.29,0,5.42,0,9.89,4.37,12.58,9.02,3.17,5.49,5.03,11.76,6.25,18.32l4.43,23.77c3.42,18.33,7.16,33.44,20.95,47.9-4.83,12.67,2.05,24.83,8.42,35.46-.46.12-.9.17-1.32.17-1.89,0-3.47-1.01-5.45-1.12-.22-.01-.45-.02-.67-.02-4.7,0-9.33,2.76-8.84,7.87,2.72-.81,5.69-2.62,8.48-2.62.9,0,1.78.19,2.63.67,1.99,1.12,3.95,1.35,5.87,1.35,1.32,0,2.62-.11,3.91-.11.83,0,1.66.04,2.48.19,2.63.47,4.56,3.25,7.8,3.25.45,0,.92-.05,1.42-.17,1.23-.29,2.34-.43,3.37-.43,4.57,0,7.42,2.64,11.83,5.32,3.1-5.26-5.71-10.62-10.63-10.76,1.39-1.96,3.36-2.51,5.43-2.51,2.56,0,5.28.83,7.26.83.79,0,1.47-.13,1.96-.51-2.14-4.23-5.85-5.55-9.98-5.55-1.54,0-3.13.18-4.73.47,2.75-3.85,7.43-3.34,11.5-4.33.91-.9-.92-3.07-2.26-3.48-1.27-.39-2.48-.57-3.64-.57-4.21,0-7.75,2.38-10.82,5.9-1.66,1.91-4.68,3.92-7.43,3.92-1.27,0-2.48-.43-3.48-1.48-4.17-4.4-6.27-11.22-7.01-17.3-.33-2.69,3.32-4.46,5.07-5.88,8.45,4.98,17.54,7.51,26.8,7.51,1.68,0,3.37-.08,5.06-.25,5.01-.5,10.12-.97,15.31-3.38,6.16,10.19,21,13.06,32.88,14.47-3.25,2.96-7.04,4.19-8.18,8.2-.94,3.29-1.06,7.2,2.75,8.45,1.86-13.55,10.45-8.03,12.69-18.62,13.43-1.28,5.19-8.88,22.72-13.82-1.17-2.08-2.91-2.82-4.82-2.82-3.76,0-8.21,2.86-10.39,4.05.17-6.18,4.94-8.47,9.48-11.52-1.42-.7-2.8-1.01-4.11-1.01-4.59,0-8.4,3.81-10.65,8.22-1.49-4.92,1.91-8.1,4.48-11.88-.79-.35-1.58-.51-2.35-.51-1.71,0-3.32.81-4.56,2.25-6.59,7.61-.55,11.16-3.96,21.33-1.22,1.26-3.13,1.76-5.34,1.76-6.12,0-14.48-3.8-16.54-5.69-1.81-1.67-2.51-7.65-1.06-9.64,1.21-1.65,3.06-3.85,4.29-4.86,9.94-8.12,14.43-20.97,16.05-33.43,4.08-31.53-13.29-57.88-43.24-69.79l-25.49-10.14c-20.79-8.27-28.09-24.72-23.22-45.84,0,0-.02,0-.03,0,2.24-7.22,6.84-16.99,15.35-17.3.21,0,.42-.01.63-.01,13.22,0,22.82,15.2,22.82,15.2,0,0,5.88,5.88,12.74,5.88,1.02,0,2.07-.13,3.11-.43,0,0,.53-.15,1.26-.15,1.84,0,4.99.93,4.52,7.41,0,0-.66,4.46-1.49,4.79s-9.74,8.75-6.44,18.17c3.3,9.41,4.57,13.65-.61,17.12,0,0,7.38-.44,5.78-10.84-1.6-10.4-3.85-9.36.11-15.96,0,0-1.98,7.93,2.37,13.05s3.3,8.92,3.3,8.92c0,0,.22,5.39-3.96,9.47,0,0,8.15-.72,6.5-14.26,0,0-.94-5.23-4.35-9.74l-.17-4.29,1.43,1.16s.61,8.31,4.4,10.9c3.8,2.59,3.58,10.35-.17,13.16,0,0,9.08-2.31,4.68-12.77,0,0-4.84-6.33-4.46-8.92,0,0,.04,0,.1,0,.76,0,5.52-.09,6.28-2.42,0,0,2.01,2.68,4.91,2.68.82,0,1.7-.21,2.63-.76,0,0-2.92-5.56-3.52-9.63s-2.92-8.97-2.92-8.97c0,0,7.71,9.85,7.65,18.77-.05,7.93,3.51,15.51,9.68,15.51.77,0,1.58-.12,2.43-.37,0,0,2.92-.44,3.25-3.52,0,0-2.03,1.52-4.48,1.52-1.48,0-3.12-.56-4.55-2.34-3.8-4.73-2.09-12.5-2.09-12.5,0,0-.28-7.82-2.64-12.06-2.37-4.24-7.27-12.25-7.27-12.25,0,0,11.78,8.04,15.52,23.78,0,0,.42.11,1.1.11,1.63,0,4.72-.66,6.83-5.18,0,0,3.65,1.28,7.22,1.28,2.04,0,4.05-.42,5.36-1.72,3.59-3.59,1.82-8.92,1.82-8.92,0,0,2.31-3.14,1.4-6.44s-3.8-5.61-1.16-8.26c0,0,4.25,4.63,7.06,4.63.67,0,1.26-.26,1.69-.91,0,0,2.71,2.43,5.33,2.43.55,0,1.09-.11,1.61-.36,2.97-1.49,3.39-1.82,3.47-4.87.08-3.06-.99-5.95,1.9-6.36,0,0-.25-.14-.6-.14-.78,0-2.06.66-2.29,4.93-.2,3.71-1.43,5.23-3.42,5.23-1.33,0-3-.68-4.92-1.84,0,0,.5-3.39-.41-5.7-.8-2.03,2.11-4.26,4.06-4.26.27,0,.51.04.73.13,0,0-.81-.61-1.86-.61-1.27,0-2.89.89-3.83,4.82,0,0,.58,3.39-.08,4.29,0,0-2.27-3.75-6.74-3.76-.58,0-1.19.06-1.85.2,0,0-1.4-.67-3.09-.67-1.88,0-4.14.82-5.26,4.3-2.13,6.61,5.22,12.39,5.22,12.39,0,0-1.54,1.48-3.62,1.48-.37,0-.77-.05-1.17-.16,0,0-4.13-6.77-14.86-15.69,0,0,7.84-9.58-6.44-19.65-14.28-10.07-16.1-9-19.07-21.55,0,0-4.46,4.95-4.29,8.09,0,0-1.16-12.72,2.23-17.34,2.88-3.93,4.02-4.87,4.3-5.07-.76.5-8.62,5.85-10.66,16.3,0,0-1.49-15.28,4.29-28.98,0,0-3.88,3.8-8.09,16.35,0,0-.17-18.66-4.87-21.72h0ZM338.73,88.7c-.09,0-8.06-7.34-4.69-11.35,0,0,1.01-1.9,3.58-1.9.16,0,.33,0,.5.02,0,0-2.15,3.2-.39,6.25,1.75,3.06,2.06,5.97.99,6.98,0,0,0,0,0,0h0ZM347.43,79.75c-1.84,0-5.19-3.94-5.19-3.94.14-.01.28-.02.41-.02,3.29,0,5.45,3.71,5.45,3.71-.19.18-.41.25-.67.25h0ZM331.92,94.36c.4,0,4.73-.04,6.25-1.65,0,0,2.39,6.34-5.06,6.77,0,0-4.33-.02-5.24-1.09,0,0,3.16-1.38,4.03-4.02,0,0,.01,0,.03,0h0ZM195.07,109.05c-2.03-.7-4.6-1.45-7.83-2.22,2.42-.36,5.95-1.35,8.23-4.09l-.4,6.31h0ZM202.63,112.98s-.53-.88-3.31-2.22l1.44-3.28,1.87,5.5h0ZM239.2,175.82c2.55-6.48,1.47-12.55.78-19.26,5.27,4.85,6.98,11.2,9.92,17.66,2.2-5.28.42-9.82-.37-14.88,5.98,7.26,7.22,16.14,5.26,26.12,5.31-4.31,5.47-10.28,6.38-16.67,2.32,7.67,1.69,15.11-.38,23.7,6.13-4.03,7.84-10.43,8.99-17.78,5.49,10.28,2.82,21.8-5.43,31.31.28.02.56.02.83.02,7.25,0,12.28-5.7,14.41-12.21,1.61,6.46-1.44,11.54-4.21,16.24-3,4.07-7.15,6.08-12,6.08-.57,0-1.15-.03-1.74-.08-6.16-.58-11.84-4.2-15.24-9.65-4.26-6.83-8.15-14.41-9.42-22.1l-3.12-18.94,1.02-.09c1.59,2.55,3.24,7.36,4.31,10.52h0Z"/>
    </g>
  </g>
</svg>