<?xml version="1.0" encoding="UTF-8"?>
<svg id="_레이어_2" data-name="레이어 2" xmlns="http://www.w3.org/2000/svg" viewBox="0 0 338.3 291.75">
  <g id="_레이어_1-2" data-name="레이어 1">
    <g>
      <path d="M271.87,15.96c3.11,1.05,6.06,2.58,8.71,4.52.87.64,1.91.97,2.97.97.36,0,.71-.04,1.07-.12,1.41-.31,2.61-1.2,3.31-2.46.26-.46.56-1.03.9-1.67.15-.28.29-.55.44-.82-.01.06-.02.12-.03.18-.25,1.52-.45,2.73-.54,3.53-.26,2.26,1.04,4.41,3.17,5.23,7.66,2.96,13.61,9.07,18.19,18.68,3.18,6.67,9.44,13.03,14.46,18.13,2.36,2.4,5.58,5.66,6.24,6.95.15.96-.01,1.73-.53,2.5-1.05,1.57-3.57,2.97-6.25,3.49-.53.1-1.05.21-1.55.31-1.62.33-3.02.62-4.19.62-.85,0-1.82-.12-3.24-.98-10.91-6.63-15.27-7.98-18.48-7.98-2.23,0-3.73.73-4.63,1.16-.14.07-.31.15-.4.19,0,0,0,0,0,0-.08,0-.27-.01-.6-.08-8.55-1.72-14.86-4.01-19.86-7.2-4.73-3.02-3.15-10.25-2.55-12.39.51-1.84-.07-3.8-1.49-5.07-.93-.83-2.12-1.27-3.33-1.27-.63,0-1.27.12-1.88.37-6.2,2.52-6.19,9.47-6.19,11.75.01,14.76,10.26,18.63,17.04,21.18.79.3,1.56.59,2.28.88-5.11,10.26-10.28,21.73-10.1,34.39l.27,19.33c.23,16.66-7.73,32.55-21.56,43.6-.29-2.09.06-3.51.57-5.56.6-2.43,1.35-5.45,1.52-10.24.08-2.28-1.4-4.33-3.6-4.97-.46-.14-.94-.2-1.4-.2-1.73,0-3.39.91-4.31,2.46l-3.46,5.87c-.66,1.11-.86,2.44-.56,3.7.09.39-.21,1.38-.47,2.24-.58,1.9-1.38,4.5-.5,7.49,4.8,16.33,8.29,29.17,10.96,40.4,1.38,5.81-.13,7.01-5.16,10.99-.44.35-.9.71-1.36,1.08-5.94,4.78-12.09,9.73-18.68,14.31l-.48.33c-2.4,1.67-3.43,2.35-5.08,2.35-.26,0-.53-.02-.82-.05-4.77-.55-9.31-2.43-14.12-4.41-1.07-.44-2.15-.89-3.23-1.32-1.99-.79-3.97-1.22-5.72-1.6-.8-.18-1.56-.34-2.27-.52,1.96-2.11,4.22-4.08,6.23-4.54.68.18,1.46.41,2.28.65,2.1.62,4.48,1.33,6.69,1.57.5.05,1.72.82,2.61,1.37,2.14,1.34,4.79,3,8.27,3,1.03,0,2.07-.15,3.07-.46,5.34-1.62,9.38-4.93,12.95-7.86,1.61-1.32,3.13-2.57,4.66-3.58.7-.46,1.26-1.09,1.65-1.81,0-.02.02-.03.03-.05,1.82-3.2,1.5-7.47-.9-11.71l-20.31-35.94-2.05-15.7c-.32-2.45-2.38-4.3-4.85-4.35-.04,0-.07,0-.11,0-2.43,0-4.51,1.75-4.93,4.15-1.96,11.34-2.24,16.72,1.76,24.01-.07,0-.14,0-.2,0-15.4,0-37.21-4.64-53.14-8.03-.19-.04-.38-.08-.58-.12.15-1.57.35-3.15.55-4.78.84-6.89,1.72-14.01-.34-21.89-.58-2.22-2.58-3.74-4.83-3.74-.14,0-.28,0-.43.02-2.42.21-4.35,2.13-4.56,4.55l-2.06,23.71c-1.07,12.3-2.78,22.5-5.38,32.08-.85,3.13-1.16,6.11-1.43,8.74-.18,1.77-.36,3.44-.67,4.92-.52,2.44-1.5,8.71.49,14.08l3.68,9.94c.1.26.22.52.36.76l18.88,32.71c.92,1.6,1.95,2.92,2.85,4.08.63.81,1.2,1.54,1.63,2.23-.35.01-.71.02-1.07.02-1.81,0-3.64-.17-5.36-.41.2-1.58.13-3.61-1.22-5.56-1.55-2.24-3.94-2.78-5.37-3.11-3.31-8.65-7.67-17.05-13.3-25.65-1.52-2.32-3.2-4.4-4.82-6.41-2.73-3.37-5.3-6.56-6.57-10.27-.62-1.8-.82-3.9-1.03-6.13-.21-2.22-.43-4.52-1.08-6.83-2.5-8.77-6.18-16.76-11.25-24.42l-8.76-13.21-1.34-2.01c-5.95-8.93-11.56-17.37-13.39-26.84-1.58-8.21-2.2-16.39-2-26.54.04-1.82-.92-3.52-2.5-4.43-.77-.45-1.63-.67-2.5-.67s-1.8.24-2.59.73c-5.27,3.2-8.25,7.08-10.88,10.52-.93,1.21-1.8,2.35-2.73,3.4-.35.4-.64.86-.85,1.35l-3.79,8.89c-1.06,2.49-1.63,4.97-2.18,7.38-.37,1.62-.73,3.16-1.2,4.55-.55,1.62-.68,3.06-.76,4.25-.74.35-1.48.89-2.1,1.71-.8,1.06-1.15,2.39-.97,3.7.05.35-.13,1.03-.29,1.68-.26,1.02-.59,2.29-.52,3.75.27,5.48-.67,10.53-2.09,15.72-.11,0-.22-.01-.33-.01-.64,0-1.29.12-1.9.38-1.47.6-2.56,1.87-2.95,3.41-.15.59-.37.84-1.11,1.64-.38.41-.81.87-1.25,1.44-3.83,5.03-10.02,7.92-16.99,7.92-2.58,0-5.16-.39-7.63-1.14.33-.21.66-.44.99-.69,5.2-3.85,11.76-10.17,13.52-18.39.7-3.25.91-6.4,1.11-9.44.22-3.36.43-6.53,1.3-9.13l3.85-11.52c1.08-3.23,2.42-5.58,3.97-8.31.47-.82.95-1.66,1.43-2.55,1.97-3.61,3.42-5.47,5.93-8.28,1.62-1.82,3.07-3.07,4.6-4.4.74-.64,1.5-1.3,2.27-2.02,8.2-7.6,19.67-12.04,34.09-13.2,1.06-.08,2.06-.5,2.86-1.2,6.4-5.51,16.54-12.08,28.53-12.08.57,0,1.15.02,1.72.04,3.17.17,5.79.75,8.82,1.43.82.18,1.66.37,2.52.55,11.67,2.47,22.04,3.67,31.72,3.67,5.31,0,10.49-.37,15.4-1.1,12.09-1.8,22.18-8.11,30.7-13.87,1.37-.93,2.19-2.47,2.2-4.13,0-1.01-.3-1.98-.85-2.8,1.14-.38,2.2-.83,3.2-1.26,1.26-.54,2.46-1.05,3.72-1.38.81-.21,1.56-.62,2.18-1.2,1.01-.95,2.04-1.87,3.14-2.84,5.27-4.68,11.25-10,13.32-18.48.53-2.15-.42-4.36-2.29-5.48,3.25-4.21,6.75-7.92,11.35-9.99,2.15-.97,3.34-3.31,2.83-5.62-.07-.31-.16-.61-.28-.89.15-.14.3-.3.44-.46,2.62-.57,4.6-2.9,4.6-5.7,0-2.26-1.29-4.22-3.17-5.19,4.45-2.95,8.88-5.57,15.96-5.57.76,0,1.55.03,2.35.09.13.01.26.02.39.02,2.34,0,4.4-1.64,4.89-3.97.12-.58.14-1.16.06-1.72M220.92,49.99c-.67.88-1.33,1.77-1.98,2.64-.69.93-1.47,1.97-2.28,3.02-.26-1-.78-1.81-1.36-2.44.13-.2.25-.4.36-.61.13.01.26.02.4.02,1.22,0,2.42-.44,3.36-1.29.52-.47,1.02-.91,1.51-1.33M294.16,2.5c-3.6,0-8.61,10.33-10.62,13.96-6.46-4.76-14.25-7.21-22-7.21-8,0-15.96,2.61-22.38,7.97-5.82,4.86-11.24,8.37-19,10.64,2.11,3.24,4.29,3.17,6.23,5.16-6.97,4.22-12.26,9.81-15.22,17.36-.82,1.07-1.45,2.32-1.93,3.7-.47,1.33,2.68,1.88,2.58,3.07-.31,3.66-3.32,6.19-4.61,10.07.71.27,1.41.4,2.1.4,10.14,0,18.52-27.12,32.43-27.2-6.73,3.03-11.21,8.58-15.71,14.81-14.4,19.93-16.54,9.94-20.63,15.21-2.86,3.69-6.55,7.09-10.11,10.86,2.09,3.98,5.79,4.4,9.74,7.1-8.69,5.89-17.97,11.48-28.63,13.07-4.86.72-9.75,1.05-14.66,1.05-10.22,0-20.52-1.41-30.68-3.56-4.11-.87-7.59-1.85-12.11-2.09-.66-.03-1.32-.05-1.98-.05-11.68,0-22.63,5.4-31.79,13.3-13.78,1.11-26.98,5.15-37.09,14.52-2.29,2.12-4.54,3.77-7.21,6.75-2.65,2.97-4.37,5.15-6.59,9.21-2.17,3.97-4.18,6.96-5.76,11.68l-3.85,11.52c-1.92,5.75-1.15,12.58-2.55,19.11-1.36,6.34-6.57,11.69-11.62,15.43-2.68,1.98-5.18,2.53-8.01,5.39,5.19,3.58,11.45,5.46,17.62,5.46,8.01,0,15.86-3.17,20.97-9.9,1.03-1.35,2.59-2.33,3.23-4.89l3.44,2.09c2.39-7.66,4.37-14.88,3.97-23.05-.08-1.64,1.09-3.57.77-5.87.45-.59,1.74-.3,2.35-.54,1.07-2.12.42-4.37,1.26-6.82,1.29-3.77,1.69-7.92,3.25-11.58l3.79-8.89c3.74-4.24,6.26-9.2,12.45-12.95-.19,9.49.28,18.19,2.08,27.58,2.16,11.21,8.83,20.67,15.47,30.67l8.76,13.21c4.74,7.15,8.2,14.56,10.61,23.02,1.16,4.07.7,8.85,2.19,13.21,2.39,6.97,7.97,11.74,11.94,17.8,5.26,8.04,9.84,16.64,13.27,25.91.84,2.27,4.45,1.48,5.48,2.96,1.32,1.91-1.05,4.66.24,6.9,3.26.65,6.87,1.22,10.45,1.22,2.67,0,5.31-.32,7.78-1.16,2.18-1.1-1.09-3.88-1.86-5.42-1.26-2.53-3.4-4.47-5-7.24l-18.88-32.71-3.68-9.94c-1.17-3.17-1.08-7.54-.29-11.32.86-4.08.74-8.61,2.04-13.38,2.89-10.64,4.55-21.54,5.54-32.96l2.06-23.71c2.67,10.22-.31,19.46-.66,29.39,15.88,3.34,41.38,9.16,59,9.16,1.79,0,3.49-.06,5.1-.19.05,0,.1,0,.15,0,.59,0,1.27.26,2.02.26.57,0,1.19-.15,1.84-.69-7.77-10.41-8.19-13.4-5.74-27.53l2.18,16.66,20.79,36.78c.98,1.74,2.1,4.69.91,6.78-.05.04-.08.09-.1.17-5.27,3.5-9.74,8.84-16.29,10.82-.56.17-1.1.24-1.62.24-3.82,0-6.81-3.96-10.33-4.34-2.87-.31-6.68-1.79-9.26-2.33-5.83.42-11.06,7.02-14.32,11.24,4.43,3.77,9.41,3.33,13.99,5.15,6.15,2.45,12.03,5.28,18.63,6.04.49.06.96.08,1.4.08,3.48,0,5.64-1.66,8.4-3.58,6.64-4.61,12.63-9.42,18.96-14.52,5.92-4.77,10.55-7.48,8.25-17.12-3.17-13.29-7.07-27.21-11.03-40.65-.91-3.1,1.86-6.04,1.05-9.48l3.46-5.87c-.41,11.91-4.85,11.43.16,24.09,17.94-11.5,29.6-30.44,29.31-51.78l-.27-19.33c-.17-12.58,5.49-23.99,11.14-35.21.19-.37,1.06-.36,1.17-.73.47-1.58-1-.8-2.12-1.47-6.74-4.01-19.39-4.11-19.4-18.97,0-2.14.04-5.88,3.07-7.11-1.79,6.42-1.37,14.07,4.68,17.94,6.5,4.15,14.07,6.38,21.57,7.89.61.12,1.13.17,1.59.17,2.31,0,2.84-1.35,5.04-1.35s6.3,1.43,15.88,7.26c2.11,1.28,3.97,1.71,5.84,1.71,2.12,0,4.23-.55,6.69-1.03,5.48-1.06,12.07-5.14,10.69-12.08-.9-4.53-15.96-15.35-21.06-26.06-4.45-9.33-10.84-17.3-20.91-21.19.36-3.17,3.29-17.17,1.19-18.04-.22-.09-.44-.13-.68-.13h0ZM232.36,28.65c-1.08,0-2.21-.13-3.41-.42,12.34-1.37,18.36-12.97,30.4-12.97,2.28,0,4.77.42,7.57,1.4-.94-.07-1.86-.11-2.73-.11-16.4,0-21.52,12.11-31.82,12.11h0ZM245.57,33.13c-.46,0-.83-.37-.83-.83s.37-.83.83-.83.83.37.83.83-.37.83-.83.83h0ZM216.05,47.61c.24-6.02,10.53-9.65,16.07-11.15l11.68-3.15c-.61,2.15-2.58,2.26-3.09,3.39-11.02,1.98-16.36,3.39-24.66,10.91h0ZM203.66,81.55c-.27,0-.54,0-.81-.03,3.62-1.93,6.7-2.87,9.21-5.17,7.68-4.08,12.79-10.73,17.83-17.09-2.07,8.47-9.04,13.24-15.03,18.86-4.19,1.08-7.06,3.43-11.2,3.43h0Z"/>
      <path d="M252.05,183.28l8.22,51.35c2.43,15.16,5.99,28.94,9.47,41.56.77,2.79,2.44,4.81,3.9,6.6.1.13.2.25.3.37-.77.06-1.56.08-2.36.08-1.77,0-3.58-.14-5.36-.41.14-.63.28-1.33.37-2.07.26-2.11-.84-4.16-2.75-5.1-.57-.28-1.14-.45-1.68-.57-1.64-15.53-4.65-30.71-9.17-46.24l1.75-2.9c.51-.85.76-1.83.71-2.82-.56-12.16-3.36-23.01-6.33-34.49-.23-.91-.47-1.82-.7-2.73,1.26-.86,2.46-1.74,3.62-2.64M255.58,173.75c-4.55,4.09-8.4,7.22-12.9,9.9,3.38,13.48,7.13,25.91,7.77,39.72l-2.89,4.78c4.98,16.61,8.31,33.18,9.93,50.58.12,1.27,3.16.93,4.13,1.41-.26,2.11-1.08,3.93-1.04,6.6,3.42.95,7.21,1.5,10.99,1.5,3.22,0,6.43-.4,9.39-1.3.04-5.33-5.25-7.87-6.42-12.08-3.7-13.42-7.06-26.71-9.35-41.02l-9.62-60.09h0Z"/>
      <path d="M95.2,201.65c3.51,5.42,6.07,10.7,7.83,16.1-.25.21-.53.42-.74.58-1.1.84-2.34,1.8-3.17,3.22-.81,1.39-3.83,4.11-6.04,6.1-2.35,2.11-4.56,4.11-5.95,5.9-2.56,3.3-6.47,10.13-6.75,15.42-.12,2.23-.33,4.53-.53,6.74-.6,6.55-1.22,13.32.28,20.08.7,3.17,2.72,5.47,4.34,7.32-.57.03-1.14.04-1.72.04-1.56,0-3.17-.11-4.77-.31.3-2.46.2-5.75-2.83-7.8-.15-.1-.3-.2-.45-.29l3.19-34.62c.13-1.41.01-2.81-.1-4.16-.11-1.32-.3-3.52.14-4,5.17-5.59,9.77-11.72,14.45-19.29.2-.32.36-.66.48-1.01,1.18-3.44,1.88-6.76,2.36-10M91.6,188.42c-.85,7.53-.97,14.26-3.49,21.62-4.03,6.51-8.44,12.65-13.88,18.53-2.78,3-1.04,7.88-1.34,11.1l-3.54,38.38c1.74.4,2.47.79,2.97,1.12,2.16,1.47-1.17,7.42.91,7.9,3.05.7,6.29,1.08,9.5,1.08s6.34-.38,9.24-1.21c-.21-5.38-6.01-7.9-6.97-12.23-1.8-8.18-.11-16.7.36-25.48.2-3.67,3.24-9.43,5.71-12.62,2.58-3.32,10.23-8.91,12.36-12.54,1-1.72,5.7-3.43,4.79-6.48-3.2-10.67-9.09-20.1-16.62-29.17h0Z"/>
      <path d="M308.48,8.3c-3.85,0-11.33,8.52-12.96,10.45l8.3,4.8c2.74-5.26,4.77-9.21,6.24-14.48-.4-.54-.93-.77-1.57-.77h0Z"/>
    </g>
  </g>
</svg>