<?xml version="1.0" encoding="UTF-8"?>
<svg id="_레이어_2" data-name="레이어 2" xmlns="http://www.w3.org/2000/svg" viewBox="0 0 276.8 286.49">
  <g id="_레이어_1-2" data-name="레이어 1">
    <g>
      <path d="M218.57,172.59c.86,5.31,2.03,11.12,5.99,15.81,3.96,4.67,12.04,11.57,20.61,18.86,9.92,8.45,22.26,18.97,24.63,23.46,3.1,5.89,2.24,15.96-.33,21.92-.78,1.8-2.87,3.05-5.38,3.81,4.63-4.9,6.04-9.52,1.68-22.12-.39-1.11-1.15-2.06-2.17-2.66l-37.9-22.59c-7.48-4.46-10.97-6.74-13.24-9.33-2.25-2.57-3.68-5.93-6.52-12.62-.38-.89-.77-1.82-1.2-2.82,5.02-3.04,9.56-6.89,13.82-11.71M221.18,160.98c-5.78,8.59-12.72,16.13-22.82,21.13,9.12,20.84,7.18,20.75,24.8,31.25l37.9,22.59c6.92,20.01-3.63,13.11-4.95,26.34.52.03,1.07.05,1.65.05,5.76,0,13.78-1.87,16.32-7.72,3.25-7.5,3.99-18.98.17-26.23-4.91-9.32-37.2-33-45.85-43.22-5.42-6.41-4.31-16.09-7.2-24.19h0Z"/>
      <path d="M63.17,5c6.84,0,13.55,1.2,19.96,3.58,9.36,3.47,16.15,6.96,22.67,11.67,5.39,3.89,11.14,8.56,17.23,13.52,11.81,9.6,24.02,19.53,35.09,24.83,9.42,4.51,19.34,6.9,28.69,6.9,5.56,0,10.84-.85,15.71-2.53,11.61-4,21.3-11.62,27.89-21.56-5.67,9.68-14.57,17.41-25.54,21.68-8.03,3.13-15.44,4.65-22.65,4.65-5.63,0-11.09-.91-16.68-2.79-10.52-3.53-20.36-8.91-29.25-15.97l-25.17-20c-7.28-5.79-14.76-9.61-23.75-13.58-7.41-3.27-15.66-5-23.85-5-11.09,0-21.54,3.08-30.22,8.9-12.89,8.65-21.58,23.86-22.69,39.7-.78,11.16,5.88,21.68,10.75,29.35l.27.43c7.05,11.14,15.88,18.78,25.24,26.87.91.79,1.82,1.58,2.75,2.38.93.81,2.1,1.23,3.28,1.23.83,0,1.67-.21,2.43-.63,4.97-2.77,10.32-2.96,15.98-3.16,2.36-.08,4.81-.17,7.27-.45,3.37-.38,6.91-.57,10.82-.57,5.96,0,12.05.44,17.93.87,3.52.26,7.17.52,10.78.69,8.83.42,16.64.62,23.89.62s13.46-.18,19.8-.56c8.9-.53,33.05-6.01,40.03-16.45.79-1.19,1.5-2.31,2.19-3.4,2.19-3.47,3.92-6.2,6.71-8.27.34-.25.68-.5,1.01-.75,3.28-2.45,5.45-4.06,9.15-4.17.32,0,.65-.01.98-.01,3.82,0,13.33.73,18.97,7.46,2.49,2.97,2.21,7.67,1.04,13.82-.42,2.18.65,4.37,2.62,5.39,3.39,1.75,5.79,4.63,6.6,7.9.67,2.73.15,5.5-1.47,7.8-.64.91-1.18,1.8-1.66,2.58-1.74,2.85-2,3.29-4.35,3.29-3.32,0-7.01-.78-11.6-2.46-.56-.2-1.14-.3-1.71-.3-.79,0-1.57.19-2.29.56-1.24.64-2.16,1.77-2.53,3.12-3.41,12.39-8.57,22.61-15.76,31.24-8.03,9.64-15.82,14.75-23.83,15.64-.29.03-.57.09-.85.17-1.12.33-2.08.81-2.86,1.2-.42.21-1.04.53-1.3.59-.03,0-.06,0-.1,0-1.58,0-3.07.75-4.02,2.03-5.38,7.28-9.7,14.79-13.2,22.95-.32.76-.46,1.58-.39,2.41.35,3.96.67,7.88.99,11.77,1.3,15.71,2.52,30.54,5.03,45.81,1.71,10.39,8.61,11.83,15.29,13.23,1.99.42,4.16.87,6.52,1.57-2.05.16-4.76.27-8.31.27-4.61,0-9.39-.17-13.61-.33-1.45-.05-2.8-.1-4.04-.14-1.61-10.81-5.5-24.04-9.27-36.88-3.92-13.35-7.63-25.96-8.31-34.15-.25-3.05,1.14-6.41,2.61-9.96,1.05-2.53,2.13-5.14,2.65-7.81l.81-4.16c.14-.3.34-.73.59-1.26,9.91-20.96,9.86-22.55,8.1-25.33-.95-1.51-2.59-2.4-4.37-2.4-2.3,0-3.79,1.48-4.28,1.97l-1.08,1.08c-3.18,3.16-4.6,7.15-5.85,10.68-.81,2.28-1.58,4.44-2.69,5.99-.27.37-.48.74-.65,1.1-2.07-.36-4.14-.66-6.17-.95-6.58-.96-12.81-1.86-17.6-4.41-2.31-2.2-4.38-4.9-6.57-7.75-4.65-6.06-9.92-12.94-18.68-15.65-.49-.15-.99-.23-1.48-.23-1.68,0-3.29.85-4.22,2.32-1.21,1.91-.99,4.39.54,6.05l17.57,19.19c4.58,5,19.13,28.2,18.55,37.42l-2.65,42.31c-.27,4.26-.24,10.38,3.03,14.23,2.84,3.34,7.48,4.5,12.4,5.74,3.68.92,7.75,1.94,10.21,3.83-.14,0-.28,0-.43,0-3.67,0-8.4-.71-11.52-1.18-1.31-.2-2.34-.35-3.13-.44-1.26-.14-2.54-.2-3.92-.2-2.98,0-5.75.31-8.2.59-1.81.21-3.52.4-4.83.4-.76,0-1.19-.07-1.41-.12-.03-.1-.07-.25-.11-.46-.96-5.72-1.26-11.47-1.55-17.02-.06-1.18-.12-2.35-.19-3.52l-1.06-18.31s0-.09,0-.13l-1.79-21.02c-.45-5.29-2.79-9.22-7.37-12.38-7.84-5.39-15.91-10.02-23.73-14.5-10.55-6.05-21.47-12.3-31.7-20.44-4.22-3.35-6.34-7.07-7.34-12.81-2.24-12.9-1.04-23.07,3.78-32.01,1.12-2.08.63-4.66-1.17-6.19C13.14,96.82,1.2,73.55,6.06,50.61c3.2-15.08,11.47-27.55,22.69-34.19.14-.08.28-.17.41-.27,9.94-7.29,21.71-11.15,34.02-11.15M63.17,0c-13,0-25.98,4.06-36.97,12.12C13.1,19.87,4.46,34.03,1.17,49.57c-6.5,30.7,15.2,56.53,38.17,75.98-6.06,11.25-6.4,23.17-4.3,35.24,1.16,6.68,3.77,11.59,9.16,15.87,18.14,14.42,37.42,22.57,55.7,35.15,3.14,2.16,4.88,4.67,5.22,8.68l1.79,21.02,1.06,18.31c.4,6.85.6,13.85,1.81,21.08.63,3.8,3.01,4.76,6.44,4.76s8.07-.99,13.03-.99c1.11,0,2.25.05,3.39.17,2.57.28,9.66,1.65,15.19,1.65s9.18-1.27,6.23-5.99c-5.17-8.26-20.39-6.86-24.6-11.82-2.02-2.37-2.08-7.03-1.85-10.68l2.65-42.31c.72-11.44-15.24-36.06-19.86-41.11l-17.57-19.19c11.11,3.45,15.72,15.35,23.78,22.71,8.25,4.69,19.45,4.73,29.39,6.89.04,0,.08.01.11.01.35,0,.38-.46.63-.83.1-.09.19-.19.3-.28.85-.48.22-1.59,1.02-2.71,3.43-4.8,3.74-11.8,8-16.03l1.08-1.08c.35-.35.6-.51.75-.51,1.8,0-9.07,22.19-9.12,22.47l-.92,4.73c-1.11,5.74-5.9,12.29-5.33,19.14,1.5,18,16.19,54.24,18.13,75.55.18,0,.37,0,.56,0,4.52,0,13.32.54,21.52.54s15.52-.52,17.76-2.58c2.12-1.95-1.26-5-3.17-5.78-13.54-5.5-21.43-1.92-23.16-12.51-3.1-18.89-4.26-37.63-5.98-57.2,3.29-7.68,7.41-14.89,12.63-21.95.05,0,.09,0,.14,0,2.06,0,3.72-1.47,5.51-1.99,11-1.21,19.85-8.68,27.12-17.41,7.79-9.35,13.16-20.14,16.73-33.11,4.91,1.79,9.16,2.76,13.31,2.76h.04c6.36,0,7.26-4.02,10.06-8,5.45-7.74,2.26-18.28-6.93-23.02,1.19-6.2,2.02-13.04-2.12-17.97-5.54-6.6-14.56-9.24-22.8-9.24-.38,0-.75,0-1.12.02-5.75.17-8.95,2.92-12.98,5.89-4.56,3.36-6.65,7.78-10.09,12.91-5.35,8-26.86,13.68-36.18,14.24-6.47.38-12.94.55-19.51.55-7.73,0-15.57-.23-23.66-.61-9.6-.45-19.2-1.56-28.95-1.56-3.77,0-7.56.17-11.38.6-8.17.93-16.79-.44-25.12,4.2-10.22-8.89-19.72-16.59-27.04-28.15-4.58-7.23-10.93-17.04-10.26-26.76.94-13.46,8.37-27.77,20.48-35.89,8.13-5.45,17.77-8.05,27.44-8.05,7.5,0,15.01,1.56,21.83,4.58,8.08,3.57,15.55,7.27,22.66,12.92l25.17,20c9.32,7.4,19.68,13.07,30.77,16.8,6.24,2.1,12.3,3.05,18.27,3.05,8.25,0,16.33-1.83,24.47-4.99,18.67-7.27,32.69-23.93,35.17-45.09.27-2.32-1.4-4.34-3.22-4.58-.33-.04-.65-.07-.96-.07-2.13,0-3.59,1.09-4.24,3.88-3.84,16.49-15.78,30.57-32.54,36.35-4.53,1.56-9.29,2.26-14.08,2.26-9.17,0-18.46-2.54-26.53-6.41-16.05-7.69-35.53-26.33-51.55-37.89-7.52-5.42-15.07-9.05-23.86-12.3C77.87,1.29,70.52,0,63.17,0h0Z"/>
      <path d="M52.53,192.57c7.33,4.85,14.83,9.13,22.15,13.09-.13,2.42-.71,4.92-1.32,7.51-.6,2.55-1.22,5.19-1.44,7.95-.21,2.58-1.29,3.47-4.39,5.67-1.02.73-2.18,1.55-3.32,2.53-6.63,5.71-13.72,10.85-20.58,15.81-4.25,3.07-8.64,6.25-12.87,9.54-2.29,1.77-4.66,5.38-5.3,8.04-1.43,5.96,2.28,13.77,7.78,16.39.61.29,1.23.57,1.85.85.83.37,1.54.7,2.14,1.01-1.72.22-3.45.4-5.02.4-1.87,0-3.3-.25-4.38-.78-5.84-2.84-10.46-9.1-14.26-15.37,2.61-3.78,5.45-6.81,8.42-9.98,1.04-1.11,2.12-2.26,3.18-3.44,2.72-3.01,5.38-6.05,7.96-8.99,6.82-7.77,13.25-15.11,20.34-21.74.36-.33.66-.72.91-1.14,4.72-8.14,3.64-12.58,1.46-18.42-.59-1.58-1.2-3.21-1.72-5.25-.07-.26-.16-.52-.27-.77-.43-.99-.88-1.94-1.33-2.88M40.73,177.61c1.97,7.61,5.6,13.14,8.55,19.86,2.29,8.92,6.01,10.88.78,19.92-10.04,9.4-18.86,20.24-28.6,31.03-4.67,5.18-9.53,9.66-13.77,16.65,4.25,7.37,9.89,16.06,17.94,19.98,1.98.96,4.23,1.28,6.57,1.28,4.5,0,9.34-1.18,13.28-1.23.18-6.71-5.3-8.25-10.1-10.54-3.32-1.58-5.96-6.99-5.07-10.71.36-1.5,2.08-4.15,3.5-5.25,10.99-8.52,22.71-16.09,33.65-25.51,4.03-3.47,8.89-4.97,9.43-11.58.49-6.07,3.38-12.22,2.71-18.89-13.8-7.39-27-15.07-38.87-25.03h0Z"/>
    </g>
  </g>
</svg>