<?xml version="1.0" encoding="UTF-8"?>
<svg id="_레이어_2" data-name="레이어 2" xmlns="http://www.w3.org/2000/svg" viewBox="0 0 215.28 250.36">
  <g id="_레이어_1-2" data-name="레이어 1">
    <g>
      <path d="M208.39,18.37c.44,0,1.17,0,1.71,1.97.57,2.11-.23,3.75-1.81,6.71-.82,1.53-1.74,3.26-2.38,5.21-.24.74-.46,1.45-.67,2.13-.92,2.99-1.47,4.79-3.19,6.89-4.85,5.93-10.75,10.18-17,14.68-1.44,1.04-2.93,2.11-4.39,3.19-11.61,8.62-21.25,22.01-27.87,38.72-.2.52-.32,1.06-.35,1.61-.05.21-.17.61-.26.89-.51,1.67-1.21,3.96-.58,6.41,2.53,9.63,6.39,16.78,11.79,21.85,7.35,6.91,14.04,9.84,18.93,11.99,5.74,2.52,8.12,3.57,9.35,8.66.26,1.09.66,2.12,1.05,3.11.03.08.06.16.1.25-.81.06-1.54.22-2.2.47-.99-.35-2.56-.97-4.68-1.84-2.52-4.02-6-9.17-12.54-10.78-2.12-.52-4.22-1.37-6.43-2.27-1.66-.67-3.37-1.36-5.12-1.92-2.66-.84-5.48-.88-8.21-.92-1.4-.02-2.73-.04-3.92-.17-.18-.02-.35-.03-.53-.03-1.42,0-2.78.6-3.73,1.68-1.07,1.2-1.5,2.85-1.14,4.42.42,1.87.84,3.68,1.24,5.45,1.89,8.2,3.51,15.28,4.49,23.05,1.19,9.49,6.33,14.46,10.08,18.1.13.13.26.25.38.37-.05.03-.09.06-.14.09-1.09-.21-2.92-.61-5.95-1.35-2.56-.62-4.4-4.8-4.82-8.42-1.14-9.77-9.08-18.73-16.08-26.63-2.08-2.35-4.05-4.57-5.67-6.62-.97-1.23-2.43-1.91-3.93-1.91-.58,0-1.16.1-1.72.31l-3.86,1.42c-2.03-19.68-17.65-35.77-38.92-38.84-1.18-.17-2.4-.26-3.63-.26-9.79,0-20.79,5.43-27.38,13.5-1.4,1.71-1.5,4.14-.26,5.96.95,1.4,2.51,2.19,4.14,2.19.5,0,1-.07,1.5-.23,2.54-.8,4.87-1.94,7.12-3.04,3.05-1.49,5.94-2.91,9-3.28,1.29-.16,2.59-.24,3.87-.24,9.5,0,18.44,4.36,24.53,11.97,7.05,8.8,9.07,20.33,5.27,30.09-3,7.72-9.67,14.25-17.83,17.45-.5.19-.96.47-1.37.81-.78.43-2.77,1.55-3.59,4.18-.42,1.34-.26,2.8.45,4.01.71,1.22,1.89,2.08,3.27,2.37,3.94.85,7.28,1.41,10.78,1.41.31,0,.63,0,.94-.01,1.55-.05,3.05-.17,4.5-.29,1.78-.15,3.45-.29,5.18-.29.94,0,1.81.04,2.66.13,1.07.11,2.28.6,3.18,1.24-.73.54-1.39,1.29-1.81,2.38l-3.05-.24c-.13-.01-.26-.02-.4-.02-1.14,0-2.26.39-3.15,1.12-.12.09-.23.18-.63.18-1.17,0-3.15-.79-4.21-1.21-.34-.13-.69-.23-1.04-.29-.39-.06-.79-.1-1.2-.1-1.61,0-2.92.5-3.88.87-.14.05-.32.12-.45.17-3.32,0-6.68-.56-10.24-1.16-1-.17-1.99-.33-2.99-.48-.81-.12-1.7-.22-2.74-.32-6.32-.65-12.67-1.66-14.72-6.23-.48-1.06-1.31-1.92-2.35-2.43-5.07-2.49-11.45-2.49-17.63-2.49h-.84c-7.16,0-15.27,0-21.38-3.77-.8-.49-1.71-.74-2.63-.74-.5,0-1.01.08-1.5.23-1.39.44-2.51,1.45-3.09,2.79-4.03,9.34,1.2,19.57,6.9,25.49,8.8,9.14,20.77,14.93,33.69,16.3,2.46.26,5.03.39,7.63.39,11.01,0,21.95-2.35,31.35-4.55,5.01-1.17,10.15-2.65,14.08-4.05l13.32-4.74c15.3-5.45,28.03-7.98,40.05-7.98.79,0,1.58.01,2.36.03.35.01.7.02,1.05.03-11.79.24-21.06,2.67-30.86,5.23-3.06.8-6.22,1.63-9.58,2.43-.89.21-1.71.67-2.36,1.31-.71.7-3.18,1.21-4.98,1.58-2.59.53-5.26,1.08-7.56,2.55-1.55.99-3.47,1.42-5.7,1.92-1.92.43-4.09.92-6.22,1.86-9.37,4.16-20.35,6.51-33.55,7.18-1.13.06-2.27.09-3.39.09-14.35,0-27.49-4.48-38.01-12.94-12.31-9.91-17.02-25.79-12.92-43.57.83-3.61.14-7.4-.65-11.78-1.1-6.06-2.48-13.61-.39-23.73.36-1.75.42-3.43.48-4.92.06-1.58.11-2.95.47-4.18l2.79-9.47,3.69-8.43c4.85-11.07,12.31-21.24,22.18-30.22,1.13-1.03,2.51-1.77,3.98-2.56,1.21-.65,2.45-1.32,3.68-2.2,7.95-5.73,21.21-8.64,39.43-8.65,2.07,0,4.17-.05,6.2-.1,2.07-.05,4.2-.1,6.32-.1,2.71,0,4.99.08,7.17.25.55.04,1.11.06,1.67.06,3.67,0,6.91-.91,9.77-1.72.88-.25,1.71-.48,2.51-.68.91-.22,1.74-.7,2.4-1.37.42-.44,1.03-.95,1.66-1.49,1.47-1.25,3.31-2.8,4.75-4.95.98-1.46,1.12-3.34.37-4.93-.76-1.59-2.29-2.67-4.05-2.84-.91-.09-1.87-.13-2.94-.13-.93,0-1.81.03-2.66.06-.77.03-1.5.05-2.2.05-2.11,0-3.39-.24-4.59-.87-3.01-1.58-5.28-4.55-6.21-8.17-.97-3.73-.4-7.58,1.57-10.57,2.09-3.19,5.88-5.02,10.39-5.02,1.25,0,2.5.14,3.73.42,3.94.89,6.98,2.8,10.83,5.21,1.02.64,2.08,1.31,3.21,1.98.78.47,1.67.71,2.57.71.45,0,.9-.06,1.34-.18,1.32-.37,2.43-1.26,3.08-2.47.5-.95,1.21-1.34,2.97-2.13.98-.44,2.08-.94,3.15-1.7,3.95-2.82,8.06-4.02,13.76-4.02,2.75,0,5.69.26,8.81.54,3.7.33,7.53.67,11.77.67,2.78,0,5.39-.15,7.97-.45l19.91-2.34c.14-.02.28-.03.41-.03M168.45,203.29c2.52.11,4.98.35,7.46.97,3.14.79,6.05,2.05,8.6,3.69-.37-.18-.75-.35-1.14-.51-4.67-1.89-9.67-3.67-14.92-4.15M208.39,13.37c-.32,0-.65.02-.99.06l-19.91,2.34c-2.57.3-5.02.42-7.39.42-7.66,0-14.32-1.21-20.58-1.21-5.75,0-11.15,1.02-16.66,4.95-2.15,1.53-5.67,1.87-7.63,5.55-5.41-3.24-9.54-6.43-15.51-7.78-1.58-.36-3.21-.54-4.84-.54-5.67,0-11.27,2.26-14.57,7.28-5.67,8.64-2.54,21.18,6.51,25.91,2.29,1.2,4.57,1.44,6.91,1.44,1.59,0,3.2-.11,4.86-.11.81,0,1.63.03,2.47.11-1.62,2.42-4.16,4-5.85,5.73-3.52.86-7.11,2.25-11.09,2.25-.42,0-.85-.02-1.28-.05-2.57-.2-5.09-.26-7.56-.26-4.27,0-8.41.19-12.52.19-13.5.01-31.09,1.48-42.35,9.59-2.4,1.73-5.46,2.72-8.1,5.13-9.98,9.09-18.12,19.87-23.39,31.91l-3.82,8.72-2.88,9.78c-.97,3.28-.42,6.45-1.05,9.51-3.72,18.05,2.63,28.65,1.07,35.4-4.07,17.66-.6,36.31,14.65,48.58,11.83,9.52,26.43,14.05,41.14,14.05,1.22,0,2.43-.03,3.64-.09,12.09-.61,24.33-2.72,35.33-7.6,3.97-1.76,8.62-1.61,12.59-4.14,3.45-2.21,10.23-1.67,13.37-4.78,14.92-3.54,25.54-7.54,41.19-7.54.66,0,1.33,0,2.02.02,5.11.11,10.23,1.86,15.32,3.92,7.4,2.99,10.77,11.47,7.77,18.95-2.34,5.85-9.42,9.92-15.69,10.68-4.41.54-8.88.9-13.28.9-3.61,0-7.16-.24-10.57-.83-9.42-1.62-18.76-4.36-28.37-4.36-1.07,0-2.15.03-3.23.11-10.28.7-21.91.76-30.98,8.18,10.12-1.07,18.97-3.69,28.04-3.69,1.3,0,2.6.05,3.92.17,8.11.74,16.09,3.05,24.43,4.78l9.23,1.92c4.51.94,8.94,1.48,13.2,1.48,11.43,0,21.68-3.88,29.01-14.47,4.75-6.86,6.27-15.04.98-23.48-4.08-6.51-11.04-11.03-18.82-12.99-5.46-1.38-10.62-1.13-15.79-1.28-.84-.02-1.67-.04-2.51-.04-14.28,0-28.32,3.5-41.72,8.27l-13.32,4.74c-4.13,1.47-9.24,2.89-13.54,3.89-9.91,2.32-20.05,4.42-30.21,4.42-2.37,0-4.74-.11-7.11-.37-11.39-1.21-22.51-6.38-30.62-14.8-5.28-5.48-8.69-13.61-5.91-20.04,7.2,4.44,16.01,4.52,24.01,4.52.28,0,.56,0,.84,0,6,0,11.49.04,15.42,1.98,3.99,8.86,16.58,8.72,21.27,9.44,4.66.72,9.3,1.7,14.04,1.7.11,0,.21,0,.32,0,1.2-.01,2.63-1.03,3.96-1.03.13,0,.26,0,.38.03,2.04.82,4.12,1.57,6.07,1.57,1.34,0,2.62-.36,3.78-1.3l8.15.65c.03-1.46-.33-2.82-.05-3.55.31-.81,2.94-.4,3.19-1.26,1.39-4.75-4.09-8.7-8.71-9.17-1.09-.11-2.14-.15-3.17-.15-3.44,0-6.59.48-9.82.58-.26,0-.53.01-.79.01-3.04,0-6.04-.51-9.73-1.3.36-1.15,1.43-1.22,2.01-1.83,8.93-3.5,16.96-10.76,20.67-20.29,4.65-11.98,1.77-25.29-6.03-35.03-6.86-8.57-17.13-13.85-28.43-13.85-1.48,0-2.97.09-4.48.28-6.4.79-11.43,4.76-17,6.51,5.26-6.46,14.76-11.66,23.5-11.66.99,0,1.96.07,2.92.2,20.43,2.94,36.27,20.01,34.76,41l10.46-3.84c6.96,8.84,19.44,19.86,20.71,30.74.57,4.86,3.18,11.38,8.61,12.7,5.34,1.3,7.59,1.72,8.58,1.72,1.89,0-.8-1.56,4.79-1.56.69,0,1.51.02,2.47.08-1.6-7.53-12.4-9.64-14.07-22.93-1.22-9.73-3.43-18.39-5.82-28.98,3.78.4,8-.11,11.14.88,3.78,1.2,7.65,3.23,11.87,4.27,5.22,1.28,7.8,5.9,10.34,9.94,5.98,2.48,7.88,3.13,8.67,3.13.87,0,.36-.8,2.5-.8.83,0,2.06.12,3.92.46,2.42-2.97-.4-7.01-1.11-9.95-3.25-13.47-14.53-8.85-29.71-23.12-5.43-5.11-8.51-12.38-10.38-19.48-.45-1.77,1.02-4.44,1-5.8,5.48-13.82,13.93-27.43,26.2-36.55,7.65-5.68,15.8-10.8,22.28-18.72,2.82-3.46,3.38-6.45,4.74-10.64,1.58-4.86,5.89-8.76,4.26-14.77-.86-3.19-2.94-5.67-6.53-5.67h0Z"/>
      <path d="M132.5,5c3.52,0,6.85,2.06,8.82,5.17-2.28,1.13-4.56,2.55-6.87,4.58-3.15-2.01-6.52-3.89-10.31-5.29,1.97-2.67,4.69-4.26,7.8-4.45.19-.01.38-.02.57-.02M132.5,0c-.29,0-.57,0-.86.03-7.09.42-12.42,5.64-14.59,12.65,6.92,1.29,12.27,4.57,18.03,8.5,4.1-4.63,7.82-6.44,12.66-8.35-1.54-7.03-7.75-12.82-15.24-12.82h0Z"/>
      <path d="M132.5,5c3.52,0,6.85,2.06,8.82,5.17-2.28,1.13-4.56,2.55-6.87,4.58-3.15-2.01-6.52-3.89-10.31-5.29,1.97-2.67,4.69-4.26,7.8-4.45.19-.01.38-.02.57-.02M132.5,0c-.29,0-.57,0-.86.03-7.09.42-12.42,5.64-14.59,12.65,6.92,1.29,12.27,4.57,18.03,8.5,4.1-4.63,7.82-6.44,12.66-8.35-1.54-7.03-7.75-12.82-15.24-12.82h0Z"/>
    </g>
  </g>
</svg>