<?xml version="1.0" encoding="UTF-8"?>
<svg id="_레이어_2" data-name="레이어 2" xmlns="http://www.w3.org/2000/svg" viewBox="0 0 317.73 216.58">
  <g id="_레이어_1-2" data-name="레이어 1">
    <g>
      <path d="M1.2,41.98c-1.34,2.08,1.03,3.39,1.3,4.48.05-.36.04-1.03.42-1.03.08,0,.17.03.27.09-.91-.86-.8-2.78-2-3.53h0Z"/>
      <path d="M218.26,9.08c10.18,0,18.09,6.97,19.69,17.34.29,1.91,1.67,3.48,3.52,4.03,8.61,2.55,15.11,6.75,21.4,10.82,8.62,5.57,17.52,11.33,30.44,11.33,3.33,0,6.88-.39,10.53-1.15.36-.08.78-.17,1.23-.28.81-.2,1.88-.45,2.69-.53,2.03,2.93,2.95,7.15,2.26,10.38-.47.29-1.17.62-1.76.89-1.52.71-3.41,1.59-5.01,3.2-.31.32-.58.67-.8,1.06-4.18,7.4-13.33,20.28-27.6,23.42-1.28.28-2.33.84-3.26,1.34-.51.27-1.36.73-1.64.74-.18-.02-.35-.03-.52-.03-2.03,0-3.89,1.24-4.65,3.17-5.44,13.8-14.7,24.99-26.07,31.49l-1.3.74c-7.52,4.32-14.61,8.4-22.62,8.4h-.22s-.06,0-.08,0c-4.29,0-6.29,4.07-7.26,6.04-5.48,11.18-8.77,23.42-10.69,39.69-.18,1.54-.46,6.59-.1,11.55.25,3.41.9,12.48,7.33,13.9.36.08.72.12,1.08.12.1,0,.21,0,.31,0l1.06-.07c1.45-.09,2.79-.8,3.67-1.96.88-1.15,1.22-2.63.92-4.05-.43-2.07-.53-4.32-.63-6.71-.07-1.64-.15-3.34-.34-5.05-.94-8.43.64-18.01,4.32-26.28.2-.44.33-.9.39-1.38.68-5.15,2.24-9.78,4.17-12.52l2.32-.59c-2.44,5.71-4.58,11.34-5.9,17.32-1.55,7.04-1.6,14.44-1.64,21.6,0,.99-.01,1.98-.02,2.97-.09,7.83,3.72,12.22,7.42,15.32-1.14-.23-2.37-.58-3.77-1.05-.52-.18-1.06-.26-1.6-.26-.87,0-1.73.22-2.49.67-1.24.71-2.12,1.93-2.41,3.33-.12.58-.26.85-.31.92-.09.04-.39.13-1.05.13-1.34,0-3.1-.36-4.79-.72-1.37-.28-2.78-.58-4.14-.72-.46-.05-.91-.07-1.39-.07-1.01,0-1.9.1-2.62.19-.41.05-.8.09-1.07.1-1.13-1.1-1.65-1.84-1.9-3.56-.29-1.96-.56-3.92-.84-5.87-1.63-11.43-3.18-22.24-5.61-33.14-1.86-8.34-4.99-14.35-7.75-19.64-3.52-6.74-6.06-11.61-5.17-19.18.26-2.2-.96-4.3-2.99-5.18-.64-.28-1.31-.41-1.98-.41-1.45,0-2.86.63-3.83,1.79-7.94,9.48-1.51,21.52,2.74,29.49.74,1.38,1.44,2.69,1.96,3.8-15.94,6.2-32.93,9.47-49.42,9.47-3.38,0-6.79-.14-10.13-.4-5.43-.44-10.45-1.11-15.79-2.13-6.99-1.33-13.44-2.66-19.47-4.66.8-.69,1.6-1.36,2.4-2.02,1.29-1.08,2.62-2.19,3.9-3.34,1.26-1.13,2.3-2.52,3.3-3.87.84-1.13,2-2.68,2.7-3.1.71-.43,1.31-1.03,1.73-1.74.53-.9,1.07-1.8,1.61-2.71,6.05-10.14,12.9-21.63,12.9-35.44,0-2.37-1.67-4.42-3.99-4.9-.34-.07-.68-.1-1.01-.1-1.96,0-3.79,1.16-4.59,3.02-1.1,2.56-2.13,5.09-3.13,7.53-3.88,9.54-7.24,17.78-13.42,24.52-.95,1.03-1.82,2.1-2.66,3.13-1.96,2.41-3.82,4.68-5.94,5.59-1.43.61-2.49,1.85-2.88,3.35-.17.66-1.5,1.64-2.68,2.5-.94.69-2.01,1.48-3,2.43-4.32,4.17-9.02,7.84-14,11.73-2.28,1.78-4.64,3.62-6.93,5.5-.92.76-1.55,1.81-1.76,2.99-1.21,6.75.57,12.99,2.29,19.02.23.8.45,1.59.68,2.4,1.9,6.91,4.77,11.13,7.43,13.87-.18-.02-.34-.05-.5-.07-.71-.1-1.18-.16-1.62-.19-.43-.02-.89-.03-1.4-.03-.37,0-.73,0-1.09.01-.29,0-.57,0-.86,0-1.38,0-1.68-.13-2.11-.48-.55-.44-1.19-2.69-1.43-3.53l-10.47-36.49c-.2-.69-.15-.91.54-2.36.51-1.07,1.14-2.4,1.4-4.14,1.12-7.85,1.26-15.3.42-22.78-.14-1.25-.74-2.4-1.69-3.22-9.18-7.97-14.87-18.93-16.46-31.71l-.03-.26c-.72-5.76-1.34-10.74-.6-16.03.29-2.05.36-3.99.42-5.87.11-3.14.2-5.85,1.29-8.25,1.08-2.36,1.5-5.63,1.94-9.66.05-.46.1-.91.15-1.32.09-.75.08-1.56,0-2.39.03,0,.06,0,.09,0,1.44-.03,2.79-.68,3.72-1.78,7.87-9.36,19.46-15.3,35.44-18.15,7.4-1.32,12.85-1.88,18.21-1.88,3.99,0,7.85.33,11.81.99,3.68.62,7.49,1.43,11.19,2.22,6.79,1.44,13.82,2.94,20.78,3.46,4.31.32,8.65.48,12.9.48,8.15,0,15.89-.59,23.03-1.75,3.58-.58,10.49-2.66,19.23-5.3,11.13-3.35,24.58-7.41,33.1-8.87,2.69,7.64,8.91,19,17.94,19,.39,0,.79-.02,1.17-.07,1.95-.22,3.6-1.57,4.2-3.44.6-1.87.05-3.92-1.41-5.24-.43-.38-.86-.77-1.3-1.15-2.4-2.11-4.67-4.11-5.74-6.72-.83-2.04-2.5-7.24-3.41-12.46-1.23-7.01-.34-9.5-.05-10.08.48-.03.96-.05,1.43-.05M218.26,4.08c-.61,0-1.23.02-1.85.06-9.92.66-2.86,24.2-.74,29.4,1.74,4.27,5.26,6.94,8.32,9.7-.2.02-.41.03-.61.03-6.83,0-13.02-12.87-14.33-19.49-13.42.94-48.22,13.34-56.75,14.73-7.19,1.17-14.75,1.68-22.23,1.68-4.23,0-8.43-.16-12.53-.47-10.36-.77-21.02-3.84-31.5-5.62-4.43-.75-8.6-1.06-12.64-1.06-6.51,0-12.69.82-19.09,1.96-14.24,2.54-28.34,7.9-38.38,19.85-4.96-5.4,3.98-3.88,7.9-11.04,1.61-2.94,1.12-6.73-1.04-8.67-1.23-1.1-2.88-1.66-4.57-1.66-1.53,0-3.1.46-4.43,1.39-4.27,2.97-5.4,8.06-6.02,13.26-1.7-.25-3.33-1.48-4.55-2.63-.11-.06-.2-.09-.27-.09-.38,0-.37.67-.42,1.03.4,1.6,3.09,3.48,4.64,5.14,1.79,1.92,4.17,7.24,3.84,10.07-.34,2.92-.7,7.36-1.67,9.48-2.28,5.01-1.38,10.24-2.12,15.49-.85,6.03-.14,11.58.62,17.6,1.65,13.24,7.54,25.66,18.15,34.87.82,7.36.6,14.5-.41,21.52-.42,2.75-2.93,4.61-1.79,8.58l10.47,36.49c.8,2.79,1.54,4.78,3.1,6.04,1.75,1.41,3.42,1.59,5.25,1.59.63,0,1.27-.02,1.94-.02.37,0,.75,0,1.14.03.78.04,3.79.61,6.63.61,2.51,0,4.89-.45,5.5-2.1,1.47-3.97-8.01-2.67-12.36-18.45-1.79-6.51-4.01-12.79-2.86-19.21,7.1-5.81,14.64-11.14,21.24-17.5,2.42-2.33,6.16-3.84,7.05-7.29,4.41-1.88,7.09-6.42,10.32-9.94,8.5-9.26,12.07-20.95,17.45-33.45,0,13.57-7.4,24.74-13.82,35.61-2.62,1.58-4.6,5.58-6.78,7.54-3.78,3.41-8.14,6.51-11.99,10.88,8.74,4.05,18.28,5.99,27.58,7.76,5.5,1.05,10.75,1.76,16.33,2.21,3.5.28,7.01.42,10.52.42,18.91,0,37.9-4.02,55.65-11.61.97-1.1-.97-3.34-1.36-4.24-3.17-7.21-12.9-20.14-5.74-28.69-1.86,15.78,8.95,22.3,13.01,40.5,2.81,12.6,4.47,25.47,6.38,38.64.45,3.1,1.67,4.8,3.41,6.47,1.13,1.09,2.22,1.37,3.36,1.37s2.39-.29,3.77-.29c.29,0,.58.01.88.04,2.73.28,6.34,1.46,9.44,1.46s5.45-1.08,6.26-5.04c3.14,1.06,5.93,1.68,8.76,1.68.59,0,1.19-.03,1.79-.08,1.68-.15,6.22.36,5.19-2.86-4.03-5.35-12.91-7.25-12.79-17.7.09-7.85-.09-16.08,1.55-23.54,1.9-8.65,5.65-16.55,9.73-25.76l-13.87,3.51c-3.73,4.01-5.6,11-6.31,16.3-3.92,8.79-5.78,19.38-4.72,28.87.44,3.97.2,8.18,1.04,12.22l-1.06.07c-4.37-.97-3.66-17.38-3.35-19.98,1.54-13.04,4.24-25.89,10.22-38.08.57-1.17,1.58-3.24,2.77-3.24h.01c.1,0,.2,0,.29,0,9.87,0,18.3-5.16,26.4-9.8,12.84-7.35,22.56-19.62,28.23-34,.17.02.34.03.51.03,2.46,0,4.4-1.84,5.99-2.19,13.39-2.95,23.99-13.67,30.88-25.84,2.1-2.12,5.77-2.5,7.65-4.94,1.92-5.46.22-12.98-3.78-17.44-.63-.48-1.49-.65-2.44-.65-1.86,0-4.04.66-5.41.95-3.45.72-6.6,1.05-9.51,1.05-20.15,0-28.9-15.56-50.42-21.93-2-12.97-12.07-21.58-24.63-21.58h0ZM14.13,47.24c-.52-4.7.79-8.13,4.91-8.86.05,0,.11-.01.16-.01.84,0,1.44,1.21,1.03,2.78-.8,3.13-3.55,4.93-6.1,6.09h0Z"/>
      <path d="M63.05,168.09c-1.85,3.6-2.26,7.43-1.35,11.84,3.12,15.1,6.69,21.98,10.33,25.76-.88-.08-1.49-.16-1.59-.17-.24-.03-.48-.05-.72-.05-.15,0-.3,0-.45.02-.48.04-.94.07-1.36.07-2.84,0-3.93-.78-4.65-3.35l-8.04-28.56c1.78-1.19,3.21-2.29,4.46-3.24,1.57-1.2,2.64-2.01,3.39-2.31M63.63,162.95c-4.13,0-6.45,3.91-14.26,8.44l9.06,32.17c1.42,5.03,4.7,6.99,9.46,6.99.58,0,1.18-.03,1.81-.09,0,0,2.82.39,5.77.39,3.41,0,6.98-.52,6.51-2.75-1.21-5.84-9.08,1.41-15.4-29.19-1.06-5.13.12-8.91,4.51-13.21-3.33-1.94-5.58-2.76-7.47-2.76h0Z"/>
      <path d="M242.72,7.35c4.58,3.2,7.45,7.92,8.07,13.19l-1.73-.62c-1.41-4.93-3.51-9.1-6.34-12.57M238.37,0c-1.45,0-2.85.58-3.7,1.44-.8.81-2.55,3.16-1.53,3.92,6.6,4.38,10.01,10.68,11.73,18.36l10.56,3.79c2.45-12.16-4.46-22.78-15.18-27.16-.61-.25-1.25-.36-1.88-.36h0Z"/>
    </g>
  </g>
</svg>