<?xml version="1.0" encoding="UTF-8"?>
<svg id="_레이어_2" data-name="레이어 2" xmlns="http://www.w3.org/2000/svg" viewBox="0 0 254.55 229.55">
  <g id="_레이어_1-2" data-name="레이어 1">
    <g>
      <path d="M108.59,23.88c5.15,0,11.99,1.44,14.57,1.98.56.12.98.21,1.23.25,22.04,3.99,42.42,18.03,55.92,38.52.96,1.46,2.55,2.25,4.18,2.25.91,0,1.83-.25,2.66-.77,6.63-4.17,14.75-6.55,22.27-6.55,5.26,0,12.69,1.2,18.23,6.94,6.58,6.81,12.11,9.28,16.16,11.08,2.3,1.03,3.64,1.65,4.31,2.5.82,1.03,1.29,3.24,1.4,6.57.21,5.93-.34,9.25-3.99,12.1-4.39,3.43-9.62,6.08-16.97,8.6-2.24.77-3.63,3-3.34,5.35.24,1.97-.18,4.11-.64,6.37-.37,1.85-.76,3.77-.82,5.79-.29,9.01-3.13,18.32-8.95,29.31l-.53,1c-4.42,8.36-8.99,17-16.49,21.35-.66.38-1.22.91-1.65,1.55-2.38,3.56-4.45,4.8-6.46,6-3.34,2-5.54,3.98-6.64,7.52-.25-.12-.51-.21-.79-.29-.6-.17-1.21-.25-1.81-.25-1.84,0-3.14.77-3.76,1.2-1.35.65-2.36,1.89-2.7,3.4-1.07,4.7-1.99,9.83-1.53,15.46.45,5.55,5.36,7.68,8.62,9.09,3.65,1.58,4.39,2.2,4.44,3.28-.86.38-3.23,1.08-8.9,1.08-3.29,0-6.52-.23-8.87-.4-.63-.05-1.19-.08-1.67-.11-2.22-.14-3.01-2.23-3.27-3.96l-2.06-13.47c-.22-1.42-1.04-2.69-2.25-3.46-.81-.52-1.75-.78-2.69-.78-.47,0-.94.07-1.4.2l-15.53,4.53c-.31.09-.58.13-.82.13-.51,0-1.08-.18-2.05-.51-.61-.2-1.29-.43-2.07-.63-2.87-.72-5.77-1.27-8.62-1.69.54-.51,1.06-1.03,1.53-1.57.19-.22.36-.45.51-.7,10.39-17.01,9.39-36.78-2.56-50.38-6-6.83-13.39-10.59-20.81-10.59-1.33,0-2.68.12-4.01.36-2.33.42-4.05,2.4-4.12,4.77-.07,2.36,1.52,4.45,3.82,5.01,12.09,2.94,20.04,12.4,20.74,24.7.49,8.64-2.08,15.79-7.24,20.14-.44.37-.9.77-1.38,1.19-1.34,1.17-3.6,3.13-4.62,3.48-1.1.38-2.11.96-3.09,1.53-.64.37-1.69.97-2.21,1.12-.35-.06-.72-.08-1.08-.08-1.9,0-3.53.74-4.96,1.4-.39.18-.94.43-1.31.57-.32-.06-.64-.09-.95-.09-.87,0-1.73.22-2.49.67-.08.03-.16.06-.24.1-1.05.42-3.25,1.29-4.64,3.62-.93,1.57-.93,3.52,0,5.09.9,1.53,2.54,2.46,4.31,2.46.05,0,.1,0,.15,0,1.26-.04,2.47-.04,3.64-.05,2.47,0,4.81-.02,7.26-.31,1.82-.22,3.7-.33,5.74-.33,3.64,0,7.27.34,10.65.72,1.74.19,3.49.28,5.18.36,4.18.2,8.13.4,11.61,2.12,1.47.73,2.81,2.48,3.58,4.44-.83,0-1.7-.06-2.63-.13-1.02-.07-2.08-.15-3.18-.15-.84,0-1.6.04-2.32.13-1.28.15-2.64.23-4.3.23-1.45,0-2.9-.05-4.43-.11-1.56-.06-3.17-.12-4.81-.12-.42,0-.84,0-1.26.01-5.88.12-11.9.12-17.71.13-4.21,0-8.55,0-12.84.05l-12.49.14h-.29s-.09,0-.09,0c-.97-.13-1.9-.17-2.79-.21-1.14-.05-2.16-.1-2.99-.31-.1-.99,0-2.73.07-3.86.17-2.87.34-5.84-.63-8.53-.48-1.34-1.52-2.41-2.84-2.94-8.59-3.45-15.72-9.66-21.79-18.98-.92-1.41-2.5-2.27-4.18-2.27-7.05,0-16.37-1.17-24.54-6.02.72-.59,1.28-1.37,1.58-2.27.51-1.49.28-3.14-.61-4.44-2.75-4.02-5.33-8-6.86-12.16.14.04.29.08.43.11.4.1.8.15,1.21.15.99,0,1.96-.29,2.8-.86,1.17-.79,1.96-2.05,2.15-3.45l.19-1.37c.93.56,1.86,1.27,2.34,1.92.85,1.16,2.16,1.9,3.59,2.02.15.01.3.02.45.02,1.27,0,2.51-.49,3.44-1.37.35-.33.65-.66.92-.97.22.12.45.25.7.39.74.4,1.56.6,2.37.6.75,0,1.5-.17,2.2-.51,1.45-.71,2.47-2.08,2.73-3.67l1.42-8.52c.18-1.09.51-2.21.86-3.39.4-1.34.8-2.73,1.07-4.29.26-1.49.98-2.75,1.89-4.35.46-.81.98-1.72,1.47-2.72.2-.4.39-.82.58-1.24.58-1.24,1.3-2.78,1.9-3.34.48-.44.87-.96,1.15-1.55,3.26-6.9,10.31-11.88,16.08-15.46,7.87-4.88,16.84-6.81,24.75-8.53,8.28-1.79,17-2.7,25.91-2.7,2.09,0,4.24.05,6.37.15,11.79.54,21.79,1.41,32.28,3.91,2.01.48,4.36.74,6.64.74s5.69-.28,8.54-1.59c.43-.2.83-.46,1.19-.77,6.16-5.37,10.84-12.52,13.89-21.27.51-1.47.31-3.1-.55-4.4-.86-1.3-2.27-2.13-3.83-2.24-14.96-1.04-29.18-6-41.14-14.36-11.92-8.33-21.39-19.89-27.4-33.44-.08-.33-.02-1.08.15-1.75.51-.15,1.57-.35,3.47-.35h0M108.59,18.88c-3.78,0-6.93.66-7.83,2.67-.69,1.55-1.25,4.45-.38,6.4,12.98,29.32,40.43,48.55,72.78,50.8-2.67,7.64-6.77,14.19-12.46,19.14-1.72.8-4.08,1.13-6.44,1.13-1.94,0-3.88-.23-5.48-.6-11.35-2.7-22.18-3.53-33.2-4.04-2.21-.1-4.41-.15-6.6-.15-9.08,0-18.07.89-26.97,2.81-8.98,1.94-18,4-26.33,9.16-7.4,4.58-14.4,10.04-17.96,17.57-1.64,1.5-2.59,3.98-3.61,6.07-1.41,2.89-3.21,5.07-3.79,8.41-.45,2.62-1.48,4.98-1.94,7.71l-1.42,8.52c-1.8-.97-2.73-1.71-4.06-1.74-.02,0-.03,0-.05,0-1.42,0-1.85,1.69-3.33,3.1-1.79-2.44-6.04-4.87-8.45-4.97-.36-.02-1.18-.6-1.68-.6-.22,0-.38.11-.42.42l-.96,6.87c-2.1-.52-4.04-1.37-6.14-1.37-.6,0-1.22.07-1.86.24.53,7.8,4.68,14.42,9.1,20.86-2.34.76-4.54.37-6.48,2.82,9.1,8.69,21.41,12.07,34.17,12.08,6.08,9.32,13.83,16.75,24.12,20.89,1.56,4.34-1.68,12.96,2.33,14.92,2.71,1.33,5.65.91,8.2,1.28.15.02.3.03.45.03.17,0,.34,0,.51,0l12.49-.14c10.19-.11,20.4.04,30.6-.17.39,0,.77-.01,1.15-.01,3.08,0,6.16.23,9.24.23,1.63,0,3.26-.06,4.9-.26.57-.07,1.14-.09,1.72-.09,1.88,0,3.84.27,5.82.27,1.87,0,3.77-.24,5.66-1.18.21-4.73-2.62-10.55-7.02-12.73-6.03-2.99-12.54-2.31-18.46-2.97-3.72-.41-7.44-.75-11.2-.75-2.1,0-4.21.11-6.34.36-3.26.39-6.53.21-10.44.33.74-1.25,2.27-1.43,3.07-1.93.29.11.59.16.9.16,2.05,0,4.62-2.03,6.32-2.03.13,0,.25.01.37.04.23.05.47.07.71.07,2.42,0,5.1-2.32,6.93-2.95,2.39-.82,5.33-3.67,7.59-5.57,6.76-5.69,9.56-14.74,9.02-24.25-.84-14.65-10.44-25.84-24.55-29.27,1.06-.19,2.1-.28,3.13-.28,6.73,0,12.64,3.87,17.05,8.89,11.24,12.79,10.63,30.41,2.04,44.47-3.04,3.45-8.41,6.3-12.2,8.56,7.48.41,14.86,1.1,21.82,2.86,1.84.46,3.36,1.29,5.35,1.29.68,0,1.41-.1,2.22-.33l15.53-4.53,2.06,13.47c.65,4.27,3.27,7.91,7.91,8.2,2.21.14,6.47.52,10.84.52,6.6,0,13.44-.87,13.84-4.8,1.01-9.94-12.53-8.07-13.01-14.06-.4-4.92.43-9.55,1.43-13.95.45-.11.81-.7,1.59-.7.15,0,.31.02.49.07-1.11,6.26-3.81,15.09,3.79,16.75,4.56,1,5.97,4.2,8.73,7.29.46.52,1.08.74,1.75.74,2.44,0,5.67-2.93,5.26-5.37-1.57-9.4-12.5-7.33-12.96-12.19-1.73-18.46,4.82-10.58,12.79-22.5,9.07-5.27,14.18-15.39,18.92-24.33,5.13-9.68,9.17-20.27,9.53-31.49.13-4,2-8.31,1.42-12.94,6.95-2.39,13.07-5.21,18.42-9.39,5.61-4.38,6.13-9.82,5.91-16.22-.58-16.68-9.08-8.77-23.27-23.45-5.78-5.98-13.67-8.46-21.83-8.46-8.77,0-17.84,2.87-24.93,7.32-13.9-21.1-34.94-36.29-59.21-40.69-1.47-.27-10.04-2.31-16.69-2.31h0Z"/>
      <path d="M130.53,5c.73,0,1.51.09,2.11.23,24.43,5.96,44.93,22.03,56.95,44.44-.61.28-1.25.59-1.94.95-14.58-20.07-34.35-33.4-57.55-38.77-.86-2.49-1.38-4.96-.74-6.76.27-.05.66-.09,1.17-.09M130.53,0c-2.15,0-4.35.48-5.18,1.9-2.56,4.37-.77,9.84,1.04,14.26,25.1,5.09,45.65,19.83,59.82,41.14,4.55-3.05,6.88-3.54,10.17-5.25C184.12,25.88,161.54,7.13,133.83.37c-.92-.22-2.1-.37-3.29-.37h0Z"/>
    </g>
  </g>
</svg>