<?xml version="1.0" encoding="UTF-8"?>
<svg id="_레이어_2" data-name="레이어 2" xmlns="http://www.w3.org/2000/svg" viewBox="0 0 227.72 205.69">
  <g id="_레이어_1-2" data-name="레이어 1">
    <path d="M219.66,5c1.55,0,2.43.23,2.76.36.14.27.32.89.28,1.68-.62,12.1-8.95,30.04-19.18,30.04-1.35,0-2.78-.3-4.25-.88-.6-.24-1.23-.36-1.85-.36-1.4,0-2.77.59-3.74,1.68l-4.2,4.73c-.49.55-.85,1.21-1.06,1.92-2.8,9.62,3.61,16.4,9.81,22.95,5.28,5.58,11.27,11.9,13.77,21.26,2.12,7.97,1.26,15.24-2.33,19.45-.56.66-.94,1.45-1.1,2.3-.28,1.47-1.98,3.19-3.6,4.68-6,5.52-13.86,8.55-22.14,8.55s-16.04-2.91-22.31-8.21c-11.82-9.99-21.35-27.86-27.55-51.68-4.78-18.34-12.56-29.34-23.13-32.69-1.35-.43-2.71-.64-4.03-.64-3.67,0-6.97,1.6-9.56,4.62-.52.61-.89,1.33-1.07,2.11-3.6,15.38,10.98,27.11,22.7,36.54,2.07,1.66,4.04,3.25,5.75,4.73,4.99,18.52,19.94,57.54,57.35,58.32,6.4,15.48,5.76,31.38-1.86,43.05-.44.67-.87,1.35-1.29,2.02-2.03,3.2-3.78,5.97-6.74,8.36-8.77,7.07-19.58,10.81-31.28,10.81-.4,0-.8,0-1.2-.01-4.07-.09-7.75-.76-12.38-1.81-29.26-6.63-44.89-37.57-50.26-50.56-1.2-2.91-2.63-5.71-4.01-8.42-2.09-4.1-4.06-7.98-5.26-12.09-1.07-3.68-2.97-7.05-4.81-10.3-1.17-2.07-2.28-4.03-3.12-5.97-3.75-8.63-14.06-22.33-25.74-22.33-1.63,0-3.23.27-4.74.81-6.58,2.33-10.06,10.98-8.79,17.14,2.66,12.87,11.55,20.47,20.96,28.52,9.69,8.29,19.71,16.86,24.11,32.45,2.31,8.16.75,15.38-4.77,22.09-4.52,5.51-10.35,8.61-16.45,8.77,6.56-1.44,13.06-4.98,16-10.88,4.38-8.77.51-19.51-4.15-26.04-4.61-6.46-12.01-11.75-19.85-17.35-15.13-10.8-30.77-21.98-30.38-43.08.07-3.78.98-6.37,2.24-9.94.24-.68.49-1.39.73-2.11,1.42-4.19,3.58-6.19,7.15-9.51l.96-.89c5.09-4.75,11.71-7.26,19.15-7.26,4.64,0,9.3.97,13.87,2.9,19.76,8.32,29.85,29.41,39.61,49.8,8.06,16.85,16.4,34.27,30.31,44.43,6.23,4.56,13.12,6.96,19.91,6.96,2.45,0,4.89-.32,7.24-.95,8.86-2.37,14.44-9.76,13.9-18.38-.92-14.48-13.36-26.75-25.42-36.84l-44.28-37.09c-11.42-9.56-19.24-24.7-19.93-38.57-.49-9.79,2.64-18.43,9.03-24.97.42-.43.85-.87,1.27-1.31,4.91-5.07,9.14-9.44,15.76-9.63,2.11-.06,4.07-.42,5.96-.77,1.88-.35,3.65-.68,5.43-.68.97,0,1.88.1,2.78.3,13.6,3.11,23.8,10.31,31.18,22.02,7.39,11.73,11.09,26.75,13.49,38.52,4.2,20.59,12.49,33.69,23.99,37.88,1.86.68,3.79,1.02,5.72,1.02,6.3,0,11.74-3.65,13.86-9.29.25-.68.36-1.4.31-2.12-.53-7.44-4.91-13.37-9.54-19.65-3.36-4.56-6.84-9.28-9.5-15.2-3.87-8.63-2.39-17.71,3.78-23.12.92-.81,1.7-1.8,2.45-2.76.66-.84,1.48-1.9,2.07-2.31,1.63-1.16,2.41-3.19,1.98-5.15-.73-3.28.17-6.43,2.73-9.62,5.84-7.28,18.64-12.35,26.48-12.35M219.66,0c-12.81,0-37.75,11.54-34.09,28.05-1.99,1.42-3.52,4.17-4.91,5.39-8.1,7.12-9.6,18.75-5.04,28.92,6.58,14.69,17.85,22.52,18.61,33.16-1.42,3.76-5.07,6.05-9.18,6.05-1.31,0-2.66-.23-4.01-.72-12.85-4.68-18.39-22.31-20.81-34.19-5.86-28.74-15.75-56.94-48.46-64.41-1.35-.31-2.65-.43-3.89-.43-4.17,0-7.82,1.35-11.53,1.45-9.33.26-14.69,6.54-20.46,12.44-20.24,20.71-8.34,54.44,11.27,70.87l44.28,37.09c10.14,8.5,22.8,20.24,23.64,33.32.4,6.27-3.63,11.48-10.2,13.24-1.98.53-3.97.78-5.95.78-6.01,0-11.9-2.3-16.96-6-29.26-21.39-32.49-78.62-70.93-94.8-5.19-2.18-10.58-3.29-15.81-3.29-8.39,0-16.39,2.84-22.57,8.61-4.26,3.98-7.46,6.62-9.43,12.45C1.66,92.66.11,96.14,0,101.55c-.67,35.37,38.63,45.85,51.16,63.42,3.95,5.55,7,14.39,3.75,20.9-3.05,6.1-11.69,8.71-17.75,8.86-3.02.07-4.48.49-5.34,2.61-.6,1.47-.02,4.24,1.54,4.84,3.28,1.24,6.46,1.81,9.5,1.81,8.36,0,15.63-4.28,20.83-10.6,6.32-7.69,8.59-16.44,5.72-26.63-9.12-32.27-40.09-36.91-44.99-60.62-.79-3.83,1.5-9.98,5.57-11.42,1.01-.36,2.04-.52,3.07-.52,8.52,0,17.63,11.21,21.16,19.32,2.32,5.33,6.19,10.39,7.72,15.67,2.17,7.49,6.56,14.04,9.44,21.03,9.73,23.55,27.7,47.62,53.78,53.53,4.53,1.03,8.68,1.83,13.38,1.93.43,0,.87.01,1.31.01,12.41,0,24.52-3.92,34.42-11.92,4.3-3.47,6.45-7.52,9.08-11.53,9.69-14.83,8.67-34.38.91-50.81-.7.03-1.41.05-2.1.05-30.79,0-47.3-29.75-54.04-56.07-10.58-9.55-31.61-22.11-28.04-37.39,1.52-1.77,3.46-2.87,5.76-2.87.8,0,1.64.13,2.52.41,11.33,3.59,17,18.45,19.8,29.18,4.98,19.11,13.75,41.22,29.17,54.24,7.37,6.22,16.48,9.39,25.53,9.39s18.32-3.26,25.52-9.87c2.46-2.27,4.58-4.58,5.13-7.42,5.31-6.24,5.57-15.65,3.35-23.97-5.8-21.77-27.5-28.15-23.61-41.52l4.2-4.73c2.12.85,4.16,1.24,6.1,1.24,14.47,0,23.5-21.64,24.18-34.79.11-2.16-.54-4.28-1.72-5.49C224.8.58,222.53,0,219.66,0h0Z"/>
  </g>
</svg>