<?xml version="1.0" encoding="UTF-8"?>
<svg id="_레이어_2" data-name="레이어 2" xmlns="http://www.w3.org/2000/svg" viewBox="0 0 362.18 229.46">
  <defs>
    <style>
      .cls-1 {
        stroke-linecap: round;
      }

      .cls-1, .cls-2 {
        fill: none;
        stroke: #000;
        stroke-linejoin: round;
        stroke-width: 5px;
      }
    </style>
  </defs>
  <g id="_레이어_1-2" data-name="레이어 1">
    <g>
      <g>
        <path d="M317.95,5.7c.11.81.19,1.67.25,2.27.14,1.36.26,2.65.51,3.79.34,1.58,1.42,2.9,2.91,3.54,9.24,3.99,18.38,8.78,22.59,16.68l10.67,20.01c.4.76.82,1.43,1.2,2.03.46.75.94,1.51,1.07,1.97-.23.3-.67.78-1.01,1.15-.34.37-.69.75-1.03,1.15-1.6,1.87-2.9,4.06-4.15,6.18-1.49,2.53-3.53,5.99-5.08,6.34-.29-.08-.99-.46-1.46-.71-.69-.38-1.47-.8-2.4-1.19l-29.39-12.24c-7.2-3-8.69-7.92-5.92-19.52.54-2.27-.55-4.6-2.64-5.64-.71-.35-1.47-.52-2.22-.52-1.46,0-2.89.64-3.87,1.83-4.08,4.97-5.89,11.4-4.97,17.64.88,5.97,4.14,11.11,9.17,14.49,1.71,1.15,3.53,2.01,5.29,2.84.5.24.99.47,1.47.7-1.15,2.12-2.66,4.14-4.22,6.22-1.75,2.34-3.56,4.75-4.96,7.47-5.68,10.99-12.52,21.04-19.15,30.75-.75,1.11-1.51,2.21-2.26,3.31-1.77,2.61-3.32,5.29-4.79,7.94l.2-1.36c.04-.26.08-.52.12-.78.42-2.58,1.12-6.9-2.55-10.47-.95-.92-2.21-1.42-3.49-1.42-.51,0-1.03.08-1.53.24-1.76.57-3.07,2.06-3.39,3.89l-6.7,37.76c-1.94,10.94-2.35,21.57-2.74,31.86-.12,3.24-.25,6.58-.43,9.84-.42,7.79.45,14.06,2.59,18.63,1.36,2.9,4.18,5.15,6.91,7.33,1.18.94,2.97,2.37,3.88,3.38-1.13.61-3.64,1.36-7.59,1.36-4.49,0-9.05-.99-12.08-2.61-1.2-2.05-4.14-10.63-8.89-46.22-.14-1.08-.26-1.95-.35-2.57l-3.41-24.56c-.91-6.55-2.05-13.13-3.59-20.71-.47-2.33-2.52-4.01-4.9-4.01h-1.92c-1.44,0-2.82.62-3.77,1.71s-1.38,2.53-1.19,3.96c.2,1.44.48,3.22.8,5.28.72,4.59,1.64,10.41,2.06,15.29-8.33-.46-16.6-2.15-25.13-5.13-5.38-1.88-9.96-3.77-14.39-5.59-10.82-4.46-20.16-8.31-33.3-8.31-.97,0-1.95.02-2.94.06,3.24-8.11,5.96-16.59,4.77-26.18-.3-2.39-2.26-4.23-4.66-4.37-.1,0-.2,0-.3,0-2.28,0-4.29,1.56-4.85,3.8-6.04,24.33-10.71,37.62-27.33,54.24-1.08,1.08-2,2.16-2.82,3.11-1.49,1.75-2.67,3.13-4.4,4.14-1.95,1.14-3.26,2.87-4.42,4.4-.46.6-1.11,1.47-1.52,1.84-.97.16-1.88.6-2.61,1.28l-13.84,12.96c-7.18,6.73-4.96,18.01-3.34,26.25.19.98.38,1.92.54,2.82.22,1.24.91,2.36,1.92,3.11l6.85,5.14c-1.3.15-3.01.25-5.23.25-4.59,0-9.48-.48-11.76-.94-.8-.16-1.63-.33-2-2.46-2.31-13.21-2.71-27.3-1.17-41.89.32-3.01,1.48-4.93,3.09-7.58,2.55-4.21,5.73-9.46,5.86-19.88.02-1.2.05-2.44.08-3.68.1-3.48.19-7.09-.08-10.6-.31-3.92-.38-7.76-.46-11.83-.02-1.32-.05-2.65-.08-3.98-.05-2.09-.15-4.07-.24-5.99-.21-4.36-.41-8.47-.03-12.85.2-2.39-1.32-4.58-3.62-5.23-.45-.13-.91-.19-1.36-.19-1.85,0-3.6,1.03-4.46,2.75l-.25.49c-1.79,3.55-3.65,7.22-4.76,11.17l-3.8,13.49c-.02.07-.04.14-.05.21l-3.85,16.29c-2.43,10.3-5.14,21.25-9.15,32.05-.56,1.51-1.57,2.75-2.73,4.19-.91,1.12-1.85,2.28-2.63,3.66-3.05,5.34-8.44,8.49-14.79,8.65-.18,0-.37,0-.55,0-6.3,0-11.79-2.71-15.47-7.62-4.96-6.63-6.55-15.15-4.37-23.36.12-.44.41-1.17,1.04-1.17.15,0,.32.03.5.09.21.07.35.13.45.17.1.7-.07,2.3-.18,3.4-.5,4.78-1.25,12.01,5.01,19.13,3.09,3.52,8.1,5.61,13.41,5.61,5.64,0,10.61-2.32,13.65-6.37,4.39-5.85,9.51-20.59,15.23-43.8l3.76-15.29,3.96-13.55c2.61-8.94,6.66-17.6,12.37-26.47,6.41-9.97,15.25-16.87,29.55-23.08,15.25-6.63,31.36-8.56,46.54-9.97l52.72-4.9c13.74-1.28,26.39-5.04,38.61-8.69,2.19-.65,4.38-1.31,6.58-1.94.06-.02.12-.04.18-.06,22.09-7.33,40.55-13.25,60.25-17.21,1.45-.29,2.7-1.22,3.41-2.52,1.81-3.34,3.69-5.42,4.97-6.41M319.29,0c-4.24,0-8.39,5.48-10.7,9.73-20.7,4.17-40.54,10.64-60.83,17.37-14.38,4.18-28.61,9-44.26,10.45l-52.72,4.9c-16.36,1.52-32.48,3.59-48.07,10.37-12.49,5.43-23.74,12.49-31.76,24.96-5.53,8.59-9.98,17.58-12.96,27.77l-3.99,13.65-3.79,15.39c-2.27,9.22-8.73,34.48-14.37,42-2.25,3-5.95,4.37-9.64,4.37s-7.44-1.39-9.66-3.92c-9.39-10.69,1.68-21.2-7.5-24.16-.69-.22-1.38-.33-2.04-.33-2.75,0-5.07,1.86-5.87,4.89-2.55,9.6-.74,19.7,5.2,27.64,4.75,6.36,11.86,9.63,19.47,9.63.23,0,.45,0,.68,0,7.67-.2,14.89-3.95,19.01-11.17,1.52-2.67,4.33-4.88,5.71-8.58,3.94-10.61,6.63-21.22,9.33-32.64l3.85-16.29,3.8-13.49c1.03-3.65,2.85-7.17,4.66-10.76-.57,6.69.08,12.52.26,19.38.13,5.38.13,10.69.55,16.08.35,4.46.04,9.32-.02,13.82-.19,15.64-7.88,17.22-8.92,27-1.52,14.45-1.3,28.92,1.22,43.28.61,3.49,2.47,5.8,5.95,6.5,2.54.51,7.7,1.04,12.74,1.04,6.44,0,12.69-.86,13-3.75.12-1.09-.53-2.32-1.58-3.12l-10.03-7.53c-1.38-7.65-4.56-19.05,1.3-24.54l13.84-12.96c3.27-.2,4.99-5.31,7.65-6.86,3.64-2.13,5.33-5.14,8.23-8.03,17.79-17.79,22.67-32.48,28.65-56.57,1.39,11.19-3.29,20.8-7.58,31.31,3.91-.56,7.44-.82,10.71-.82,17.13,0,27.08,6.99,46.04,13.62,9.81,3.43,20.07,5.54,31.45,5.54.18,0,.36,0,.55,0,.13-7.53-2.32-20.51-3.12-26.37h1.92c1.34,6.61,2.55,13.28,3.53,20.4l3.41,24.56c.99,7.15,6.18,49.16,11.11,52.1,4.02,2.39,9.84,3.61,15.16,3.61,5.91,0,11.2-1.5,12.68-4.56,2.54-5.24-9.15-9.91-11.36-14.63-2.11-4.51-2.42-10.67-2.13-16.24.72-13.42.6-27.05,3.09-41.09l6.7-37.76c2.04,1.98,1.34,4.43.97,6.94l-3.55,24.21c7.71-8.26,11.15-18.32,17.23-27.26,7.48-11.01,15.24-22.07,21.71-34.58,3.07-5.94,8.84-10.84,11.03-18.06-3.06-2.34-7.17-3.54-10.27-5.62-8.5-5.69-9.37-17.19-3.12-24.79-2.44,10.24-3.13,20.31,8.87,25.3l29.39,12.24c2.09.87,3.68,2.3,5.78,2.3.28,0,.57-.03.88-.08,5.66-1.06,8.19-9.58,12.15-14.19,1.59-1.84,3.24-3.15,3.28-5.24.05-2.55-1.66-4.36-2.89-6.67l-10.67-20.01c-5.03-9.45-15.38-14.75-25.02-18.92-.66-3.07-.41-9.67-2.78-10.47-.51-.17-1.02-.25-1.53-.25h0Z"/>
        <path d="M284.94,129.37c4.07,8.64,8.43,16.31,12.67,23.78,4.45,7.84,9.05,15.93,13.3,25.11,1.18,10,2.3,20.31-.38,30.32-.35,1.33-1.66,3.13-5.49,4.92-.05-1.34.06-2.77.19-4.37.06-.78.12-1.56.17-2.35l1.2-20.81c.09-1.58-.57-3.11-1.78-4.12-12.74-10.67-23.42-19.83-33.13-30.66l13.25-21.82M285.64,118.57l-20.13,33.16c10.97,12.77,23.19,23.15,36.1,33.96l-1.2,20.81c-.27,4.69-1.14,9.07,1.25,13.6,4.91-1.5,12.14-4.35,13.71-10.23,2.97-11.12,1.68-22.29.42-32.98-9.81-21.44-21.07-36.17-30.14-58.32h0Z"/>
        <path d="M150.5,143.26c4,0,7.8.45,11.53,1.38-2.43,12.41-6.95,23.7-11.71,35.58-2.1,5.24-1.24,13.69,1.87,18.46.79,1.21,1.54,2.53,2.34,3.92,2.26,3.96,4.82,8.45,8.99,11.4,1.49,1.06,3.17,1.84,4.79,2.59,1.9.89,3.08,1.51,3.79,2.02-.62.08-1.44.13-2.52.13-.88,0-1.76-.03-2.54-.06l-.71-.03c-.99-.03-1.99-.05-3.01-.07-3.87-.06-7.87-.13-10.59-1.29-4-4.91-7.66-10.26-11.21-15.44-2.3-3.37-4.69-6.85-7.17-10.22-1.08-1.46-1.21-2.53-.61-4.98.78-3.19.77-6.08.76-8.62,0-1.33,0-2.58.11-3.68.04-.4.04-.81-.02-1.21l-2.41-17.31c.57-1.83,2.17-3.87,3.84-6.02,1.33-1.71,2.79-3.58,3.97-5.67,3.8-.61,7.25-.91,10.5-.91M150.5,138.26c-4.55,0-9.14.53-13.89,1.43-2.19,5.67-8.47,10.14-9.51,15.93l2.54,18.24c-.38,3.6.27,7.44-.75,11.64-.75,3.08-.91,5.92,1.44,9.13,6.47,8.8,12.16,18.2,19.22,26.69,4.57,2.55,10.97,2.15,16.6,2.35.95.03,2.15.09,3.42.09,3.35,0,7.23-.43,8.48-2.95.66-6.81-7.53-7.96-11.65-10.88-4.51-3.2-6.88-9.14-10.03-13.98-2.27-3.49-2.9-10.16-1.42-13.87,5.45-13.61,10.53-26.34,12.75-40.96-5.83-2.02-11.49-2.86-17.22-2.86h0Z"/>
      </g>
      <path d="M326.28,10.2c1.06.53,2.63,1.74,4.15.91-.23-3.44-.14-6.2-1.55-8.76-.7-1.27-2.65-.88-3.44-.44-1.64.93-1.36,7.2.83,8.29Z"/>
      <path class="cls-1" d="M330.43,16.67s-4.72-.74-8.35,5.04"/>
      <path class="cls-1" d="M337.96,21.73s-4.72-.5-8.36,3.42"/>
      <path class="cls-1" d="M343.39,26.89s-2.72-.47-6.35,3.46"/>
      <path class="cls-2" d="M248.65,30.35s-13.87,12.63-17.5,39.71"/>
      <path class="cls-2" d="M217.94,38.03s-29.72,28.07-25.1,48.88"/>
      <path class="cls-2" d="M178.1,42.32s-15.98,8.59-13.99,22.46"/>
      <path class="cls-2" d="M141.31,47.27s-12.55,24.11,0,39.63"/>
      <path class="cls-2" d="M103.6,55.83s-6.94,8.74,13.87,26.9"/>
      <path class="cls-2" d="M75.65,116.49s-1.65,9.61,18.83,14.56"/>
      <path class="cls-2" d="M340.14,70.98s-4.49,5.59-7.32,6.58c0,0,3.69-5.06,3.66-8.28l3.66,1.71Z"/>
    </g>
  </g>
</svg>